<?xml version="1.0" encoding="utf-8"?>
<!-- Generator: Adobe Illustrator 25.1.0, SVG Export Plug-In . SVG Version: 6.00 Build 0)  -->
<svg version="1.1" id="Livello_1" xmlns="http://www.w3.org/2000/svg" xmlns:xlink="http://www.w3.org/1999/xlink" x="0px" y="0px"
	 viewBox="0 0 92.5 97.7" style="enable-background:new 0 0 92.5 97.7;" xml:space="preserve">
<style type="text/css">
	.st0{font-family:'OpenSans';}
	.st1{font-size:5px;}
	.st2{fill:#49A0D8;}
	.st3{fill:#A8D2A2;}
	.st4{fill:#F5A3BD;}
	.st5{fill:#EC4C4E;}
	.st6{opacity:0.5;fill:#97AEE4;enable-background:new    ;}
	.st7{opacity:0.5;fill:#6385D6;enable-background:new    ;}
	.st8{fill:none;stroke:#000000;stroke-width:0.1;stroke-miterlimit:10;}
</style>
<text transform="matrix(1 0 0 1 37.6967 59.2595)" class="st0 st1">riferimenti bibliografici</text>
<rect x="10.5" y="52" class="st2" width="11.9" height="11.9"/>
<text transform="matrix(1 0 0 1 37.6967 74.1133)" class="st0 st1">note</text>
<rect x="10.5" y="66.8" class="st3" width="11.9" height="11.9"/>
<text transform="matrix(1 0 0 1 37.6967 89.0275)" class="st0 st1">immagini</text>
<rect x="10.5" y="81.7" class="st4" width="11.9" height="11.9"/>
<text transform="matrix(1 0 0 1 37.6967 44.4418)" class="st0 st1">avvisi</text>
<rect x="10.5" y="37.2" class="st5" width="11.9" height="11.9"/>
<g transform="translate(560.802695652174,694.054)">
	
		<ellipse transform="matrix(0.3162 -0.9487 0.9487 0.3162 269.2159 -979.1136)" class="st6" cx="-544.6" cy="-676.3" rx="13.6" ry="13.6"/>
	<circle class="st7" cx="-544.6" cy="-676.3" r="6.5"/>
	<text transform="matrix(1 0 0 1 -523.3869 -687.2838)" class="st0 st1">dimensione </text>
	<text transform="matrix(1 0 0 1 -523.3869 -682.2838)" class="st0 st1">articolo</text>
	<line class="st8" x1="-525.8" y1="-686.1" x2="-544.6" y2="-686.1"/>
	<text transform="matrix(1 0 0 1 -523.3869 -674.6989)" class="st0 st1">dimensione </text>
	<text transform="matrix(1 0 0 1 -523.3869 -669.6989)" class="st0 st1">sezione</text>
	<line class="st8" x1="-525.8" y1="-676.3" x2="-544.6" y2="-676.3"/>
</g>
<text transform="matrix(1 0 0 1 37.6967 29.335)" class="st0 st1">monumenti</text>
</svg>
