<?xml version="1.0" encoding="utf-8"?>
<!-- Generator: Adobe Illustrator 25.2.3, SVG Export Plug-In . SVG Version: 6.00 Build 0)  -->
<svg version="1.1" id="Livello_1" xmlns="http://www.w3.org/2000/svg" xmlns:xlink="http://www.w3.org/1999/xlink" x="0px" y="0px"
	 viewBox="0 0 128.1 80.4" style="enable-background:new 0 0 128.1 80.4;" xml:space="preserve">
<style type="text/css">
	.st0{opacity:0.5;fill:#A8A8A8;enable-background:new    ;}
	.st1{opacity:0.9;fill:none;stroke:#A8A8A8;stroke-width:0.5;enable-background:new    ;}
	.st2{font-family:'OpenSans',Arial,sans-serif;}
	.st3{font-size:5px;}
	.st4{fill:none;stroke:#000000;stroke-width:0.1;stroke-miterlimit:10;}
	.st5{opacity:0.9;enable-background:new;}
	.st6{fill:none;stroke:#A8A8A8;stroke-width:0.5;stroke-dasharray:2.9563,2.9563;}
</style>
<g transform="translate(560.802695652174,694.054)">
	
	<ellipse transform="matrix(0.7204 -0.6936 0.6936 0.7204 323.4726 -530.8929)" class="st0" cx="-496.7" cy="-666.6" rx="17.6" ry="17.6"/>
	<circle class="st0" cx="-496.7" cy="-666.6" r="3.4"/>
	<circle class="st1" cx="-496.7" cy="-666.6" r="11.1"/>
	<text transform="matrix(1 0 0 1 -472.1701 -672.0921)" class="st2 st3">dimensione </text>
	<text transform="matrix(1 0 0 1 -472.1701 -666.0921)" class="st2 st3">pagina di  </text>
	<text transform="matrix(1 0 0 1 -472.1701 -660.0921)" class="st2 st3">discussione</text>
	<line class="st4" x1="-487.9" y1="-673.4" x2="-474.3" y2="-673.4"/>
	<text transform="matrix(1 0 0 1 -472.1701 -647.0852)" class="st2 st3">dimensione </text>
	<text transform="matrix(1 0 0 1 -472.1701 -641.0852)" class="st2 st3">pagina nell’anno</text>
	<text transform="matrix(1 0 0 1 -472.1701 -635.0852)" class="st2 st3">precedente</text>
	<line class="st4" x1="-484.6" y1="-648.4" x2="-474.3" y2="-648.4"/>
	<text transform="matrix(1 0 0 1 -557.6358 -682.7154)" class="st2 st3">dimensione </text>
	<text transform="matrix(1 0 0 1 -557.6358 -677.7154)" class="st2 st3">voce</text>
	<line class="st4" x1="-529.2" y1="-681.1" x2="-500.1" y2="-681.1"/>
	<text transform="matrix(1 0 0 1 -557.6358 -667.9037)" class="st2 st3">dimensione </text>
	<text transform="matrix(1 0 0 1 -557.6358 -662.9037)" class="st2 st3">incipit</text>
	<line class="st4" x1="-529.2" y1="-666.6" x2="-498.3" y2="-666.6"/>
	<text transform="matrix(1 0 0 1 -557.6358 -634.8849)" class="st2 st3">variazione</text>
	<text transform="matrix(1 0 0 1 -557.6358 -628.8849)" class="st2 st3">delle pagine viste</text>
	<line class="st4" x1="-515.7" y1="-630.3" x2="-496.7" y2="-630.3"/>
</g>
<g class="st5">
	<circle class="st6" cx="64.1" cy="27.5" r="21.6"/>
</g>
<line class="st6" x1="64.1" y1="27.5" x2="64.1" y2="77"/>
<text transform="matrix(1 0 0 1 3.1669 71.3005)" class="st2 st3">rispetto all’anno</text>
<text transform="matrix(1 0 0 1 3.1669 77.7771)" class="st2 st3">precedente</text>
</svg>
