<?xml version="1.0" encoding="utf-8"?>
<!-- Generator: Adobe Illustrator 25.0.0, SVG Export Plug-In . SVG Version: 6.00 Build 0)  -->
<svg version="1.1" id="Livello_1" xmlns="http://www.w3.org/2000/svg" xmlns:xlink="http://www.w3.org/1999/xlink" x="0px" y="0px"
	 viewBox="0 0 118.6 58.8" style="enable-background:new 0 0 118.6 58.8;" xml:space="preserve">
<style type="text/css">
	.st0{opacity:0.5;fill:#0000FF;enable-background:new    ;}
	.st1{opacity:0.9;fill:none;stroke:#0000FF;stroke-width:0.5;enable-background:new    ;}
	.st2{font-family:'OpenSans';}
	.st3{font-size:5px;}
	.st4{fill:none;stroke:#000000;stroke-width:0.1;stroke-miterlimit:10;}
</style>
<g transform="translate(560.802695652174,694.054)">
	<circle class="st0" cx="-499.7" cy="-666.6" r="17.6"/>
	<circle class="st0" cx="-499.7" cy="-666.6" r="3.4"/>
	<circle class="st1" cx="-499.7" cy="-666.6" r="11.1"/>
	<text transform="matrix(1 0 0 1 -473.1701 -654.0921)" class="st2 st3">dimensione </text>
	<text transform="matrix(1 0 0 1 -473.1701 -648.0921)" class="st2 st3">pagina di  </text>
	<text transform="matrix(1 0 0 1 -473.1701 -642.0921)" class="st2 st3">discussione</text>
	<line class="st4" x1="-499.7" y1="-655.4" x2="-475.3" y2="-655.4"/>
	<text transform="matrix(1 0 0 1 -557.6358 -682.7154)" class="st2 st3">dimensione </text>
	<text transform="matrix(1 0 0 1 -557.6358 -677.7154)" class="st2 st3">articolo</text>
	<line class="st4" x1="-529.2" y1="-681.1" x2="-503.1" y2="-681.1"/>
	<text transform="matrix(1 0 0 1 -557.6358 -667.9037)" class="st2 st3">dimensione </text>
	<text transform="matrix(1 0 0 1 -557.6358 -662.9037)" class="st2 st3">incipit</text>
	<line class="st4" x1="-529.2" y1="-667.2" x2="-499.7" y2="-667.2"/>
</g>
<text transform="matrix(1 0 0 1 49.454 -10.5177)" class="st2" style="fill:none; font-size:7.2px;">articolo</text>
</svg>
