<?xml version="1.0" encoding="utf-8"?>
<!-- Generator: Adobe Illustrator 25.3.1, SVG Export Plug-In . SVG Version: 6.00 Build 0)  -->
<svg version="1.1" id="Livello_1" xmlns="http://www.w3.org/2000/svg" xmlns:xlink="http://www.w3.org/1999/xlink" x="0px" y="0px"
	 viewBox="0 0 130 102.9" style="enable-background:new 0 0 130 102.9;" xml:space="preserve">
<style type="text/css">
	.st0{opacity:0.5;fill:#A8A8A8;enable-background:new    ;}
	.st1{opacity:0.9;fill:none;stroke:#A8A8A8;stroke-width:0.5;enable-background:new    ;}
	.st2{font-family:'OpenSans';}
	.st3{font-size:5px;}
	.st4{fill:none;stroke:#000000;stroke-width:0.1;stroke-miterlimit:10;}
	.st5{enable-background:new    ;}
	.st6{opacity:0.9;enable-background:new    ;}
	.st7{fill:none;stroke:#A8A8A8;stroke-width:0.5;stroke-dasharray:2.9563,2.9563;}
</style>
<g transform="translate(560.802695652174,694.054)">
	
		<ellipse transform="matrix(0.8222 -0.5692 0.5692 0.8222 284.2942 -399.1431)" class="st0" cx="-496.7" cy="-654.6" rx="17.6" ry="17.6"/>
	<circle class="st0" cx="-496.7" cy="-654.6" r="3.4"/>
	<circle class="st1" cx="-496.7" cy="-654.6" r="11.1"/>
	<text transform="matrix(1 0 0 1 -472.1701 -660.0921)" class="st2 st3">dimensione </text>
	<text transform="matrix(1 0 0 1 -472.1701 -654.0921)" class="st2 st3">voce</text>
	<line class="st4" x1="-480.6" y1="-661.4" x2="-473.3" y2="-661.4"/>
	<text transform="matrix(1 0 0 1 -472.1701 -689.6609)" class="st5"><tspan x="0" y="0" class="st2 st3">voce migliorata </tspan><tspan x="0" y="6" class="st2 st3">molto/</tspan><tspan x="0" y="12" class="st2 st3">abbastanza/  </tspan><tspan x="0" y="18" class="st2 st3">poco</tspan></text>
	<line class="st4" x1="-491.3" y1="-690.2" x2="-473.3" y2="-690.2"/>
	<text transform="matrix(1 0 0 1 -472.1701 -645.0852)" class="st2 st3">dimensione </text>
	<text transform="matrix(1 0 0 1 -472.1701 -639.0852)" class="st2 st3">pagina di</text>
	<text transform="matrix(1 0 0 1 -472.1701 -633.0852)" class="st2 st3">discussione</text>
	<line class="st4" x1="-489.2" y1="-646.4" x2="-474.3" y2="-646.4"/>
	<line class="st4" x1="-528" y1="-674.1" x2="-507.2" y2="-674.1"/>
	<text transform="matrix(1 0 0 1 -557.6358 -653.2667)" class="st2 st3">dimensione </text>
	<text transform="matrix(1 0 0 1 -557.6358 -647.2706)" class="st2 st3">incipit</text>
	<text transform="matrix(1 0 0 1 -557.6358 -622.8849)" class="st2 st3">variazione</text>
	<text transform="matrix(1 0 0 1 -557.6358 -616.8849)" class="st2 st3">delle pagine viste</text>
	<line class="st4" x1="-515.7" y1="-618.3" x2="-496.7" y2="-618.3"/>
</g>
<g class="st6">
	<circle class="st7" cx="64.1" cy="39.5" r="21.6"/>
</g>
<line class="st7" x1="64.1" y1="39.5" x2="64.1" y2="89"/>
<text transform="matrix(1 0 0 1 3.1669 83.3005)" class="st2 st3">rispetto all’anno</text>
<text transform="matrix(1 0 0 1 3.596 89.348)" class="st2 st3">precedente</text>
<g>
	<polygon points="64.1,0.9 62.1,2.9 66.1,2.9 	"/>
	<polygon points="64.1,2.9 62.1,4.9 66.1,4.9 	"/>
	<polygon points="64.1,4.9 62.1,6.9 66.1,6.9 	"/>
</g>
<text transform="matrix(1 0 0 1 3.1667 21.3389)" class="st2 st3">dimensione </text>
<text transform="matrix(1 0 0 1 3.5308 27.3389)" class="st2 st3">voce l’anno</text>
<text transform="matrix(1 0 0 1 3.1667 33.3389)" class="st2 st3">precedente</text>
<line class="st4" x1="31.6" y1="39.5" x2="60.7" y2="39.5"/>
</svg>
