<?xml version="1.0" encoding="utf-8"?>
<!-- Generator: Adobe Illustrator 27.9.0, SVG Export Plug-In . SVG Version: 6.00 Build 0)  -->
<svg version="1.1" id="Livello_1" xmlns="http://www.w3.org/2000/svg" xmlns:xlink="http://www.w3.org/1999/xlink" x="0px" y="0px"
	 viewBox="0 0 130 56.7" style="enable-background:new 0 0 130 56.7;" xml:space="preserve">
<style type="text/css">
	.st0{opacity:0.5;fill:#A8A8A8;enable-background:new    ;}
	.st1{opacity:0.9;fill:none;stroke:#A8A8A8;stroke-width:0.5;enable-background:new    ;}
	.st2{font-family:'OpenSans', Arial, Helvetica, sans-serif;}
	.st3{font-size:5px;}
	.st4{fill:none;stroke:#000000;stroke-width:0.1;stroke-miterlimit:10;}
	.st5{fill:none;stroke:#A8A8A8;stroke-width:0.5;stroke-dasharray:2.9563,2.9563;}
</style>
<g transform="translate(560.802695652174,694.054)">
	
		<ellipse transform="matrix(0.96 -0.2799 0.2799 0.96 167.3665 -165.7726)" class="st0" cx="-496.7" cy="-668.8" rx="17.6" ry="17.6"/>
	<circle class="st0" cx="-496.7" cy="-668.8" r="3.4"/>
	<circle class="st1" cx="-496.7" cy="-668.8" r="11.1"/>
	<text transform="matrix(1 0 0 1 -472.1701 -674.2653)" class="st2 st3">article </text>
	<text transform="matrix(1 0 0 1 -472.1701 -668.2653)" class="st2 st3">size</text>
	<line class="st4" x1="-480.6" y1="-675.6" x2="-473.3" y2="-675.6"/>
	<text transform="matrix(1 0 0 1 -472.1701 -659.2584)" class="st2 st3">size of the</text>
	<text transform="matrix(1 0 0 1 -472.1701 -653.2584)" class="st2 st3">discussion</text>
	<text transform="matrix(1 0 0 1 -472.1701 -647.2584)" class="st2 st3">page</text>
	<line class="st4" x1="-489.2" y1="-660.6" x2="-474.3" y2="-660.6"/>
	<text transform="matrix(1 0 0 1 -557.3552 -667.4399)" class="st2 st3">incipit </text>
	<text transform="matrix(1 0 0 1 -557.3552 -661.4438)" class="st2 st3">size</text>
</g>
<path class="st5" d="M64.1,25.3"/>
<line class="st4" x1="19.7" y1="25.3" x2="60.7" y2="25.3"/>
</svg>
