<?xml version="1.0" encoding="utf-8"?>
<!-- Generator: Adobe Illustrator 16.0.4, SVG Export Plug-In . SVG Version: 6.00 Build 0)  -->
<!DOCTYPE svg PUBLIC "-//W3C//DTD SVG 1.1//EN" "http://www.w3.org/Graphics/SVG/1.1/DTD/svg11.dtd">
<svg version="1.1"
	 id="svg2" xmlns:dc="http://purl.org/dc/elements/1.1/" xmlns:cc="http://creativecommons.org/ns#" xmlns:rdf="http://www.w3.org/1999/02/22-rdf-syntax-ns#" xmlns:svg="http://www.w3.org/2000/svg" xmlns:sodipodi="http://sodipodi.sourceforge.net/DTD/sodipodi-0.dtd" xmlns:inkscape="http://www.inkscape.org/namespaces/inkscape" sodipodi:docname="Novo documento 1" inkscape:version="0.48.2 r9819"
	 xmlns="http://www.w3.org/2000/svg" xmlns:xlink="http://www.w3.org/1999/xlink" x="0px" y="0px" width="141.732px"
	 height="141.732px" viewBox="182.962 119.847 141.732 141.732" enable-background="new 182.962 119.847 141.732 141.732"
	 xml:space="preserve">
<sodipodi:namedview  fit-margin-left="0" fit-margin-top="0" showgrid="false" inkscape:cy="189.24062" inkscape:cx="484.0582" inkscape:zoom="0.7" borderopacity="1.0" bordercolor="#666666" pagecolor="#ffffff" id="base" inkscape:window-maximized="1" inkscape:window-y="-8" inkscape:window-x="-8" inkscape:window-height="1018" inkscape:window-width="1920" inkscape:current-layer="layer1" inkscape:document-units="px" fit-margin-bottom="0" inkscape:pageopacity="0.0" fit-margin-right="0" inkscape:pageshadow="2">
	</sodipodi:namedview>
<g id="layer1" transform="translate(-108.24108,-75.159339)" inkscape:label="Camada 1" inkscape:groupmode="layer">
	<path id="path3067" inkscape:connector-curvature="0" d="M356.673,244.51c-1.465-0.651-3.271-1.571-5.42-2.759
		s-4.272-2.368-6.372-3.54s-3.955-2.157-5.566-2.954s-3.052-1.343-4.321-1.636c-1.172-0.26-2.279-0.391-3.32-0.391
		c-2.539,0-3.809,1.139-3.809,3.418c0,0.716,0.081,1.465,0.244,2.246c0.162,0.781,0.406,1.701,0.732,2.759
		c0.325,1.058,0.602,1.978,0.83,2.759c0.65,2.344,1.302,4.126,1.953,5.347c0.65,1.221,1.521,2.222,2.612,3.003
		c1.09,0.781,2.774,1.611,5.054,2.49v10.791c-1.27-0.651-3.183-1.53-5.737-2.637c-2.556-1.107-4.68-2.295-6.372-3.564
		c-1.693-1.27-3.256-3.133-4.688-5.591c-1.433-2.458-2.637-5.737-3.613-9.839c-0.749-2.865-1.123-5.697-1.123-8.496
		c0-4.557,1.18-7.926,3.54-10.107c2.359-2.181,5.558-3.271,9.595-3.271c1.302,0,2.669,0.098,4.102,0.293
		c3.385,0.554,6.339,1.286,8.862,2.197c2.522,0.912,4.801,1.986,6.836,3.223c2.034,1.237,4.5,2.897,7.397,4.98h8.008
		c2.896-2.083,5.354-3.744,7.373-4.98c2.018-1.237,4.305-2.311,6.86-3.223c2.555-0.911,5.509-1.644,8.862-2.197
		c1.367-0.195,2.734-0.293,4.102-0.293c2.571,0,4.85,0.464,6.836,1.392c1.985,0.928,3.523,2.384,4.614,4.37
		c1.09,1.986,1.636,4.525,1.636,7.617c0,2.799-0.375,5.631-1.123,8.496c-0.977,4.069-2.173,7.349-3.589,9.839
		s-2.963,4.362-4.639,5.615c-1.677,1.253-3.801,2.433-6.372,3.54c-2.572,1.107-4.492,1.986-5.762,2.637v-10.791
		c2.311-0.879,4.004-1.717,5.078-2.515s1.929-1.798,2.563-3.003s1.277-2.979,1.929-5.322c1.204-3.906,1.807-6.494,1.807-7.764
		c0-2.279-1.27-3.418-3.809-3.418c-1.042,0-2.133,0.13-3.271,0.391c-1.4,0.326-3.085,0.993-5.054,2.002
		c-1.97,1.009-4.818,2.555-8.545,4.639c-3.728,2.083-6.438,3.5-8.13,4.248v64.697h-10.791V244.51z"/>
</g>
</svg>
