<?xml version="1.0" encoding="utf-8"?>
<!-- Generator: Adobe Illustrator 16.0.4, SVG Export Plug-In . SVG Version: 6.00 Build 0)  -->
<!DOCTYPE svg PUBLIC "-//W3C//DTD SVG 1.1//EN" "http://www.w3.org/Graphics/SVG/1.1/DTD/svg11.dtd">
<svg version="1.1"
	 id="svg2" xmlns:dc="http://purl.org/dc/elements/1.1/" xmlns:cc="http://creativecommons.org/ns#" xmlns:rdf="http://www.w3.org/1999/02/22-rdf-syntax-ns#" xmlns:svg="http://www.w3.org/2000/svg" xmlns:sodipodi="http://sodipodi.sourceforge.net/DTD/sodipodi-0.dtd" xmlns:inkscape="http://www.inkscape.org/namespaces/inkscape" sodipodi:docname="Novo documento 1" inkscape:version="0.48.2 r9819"
	 xmlns="http://www.w3.org/2000/svg" xmlns:xlink="http://www.w3.org/1999/xlink" x="0px" y="0px" width="141.732px"
	 height="141.732px" viewBox="182.962 119.847 141.732 141.732" enable-background="new 182.962 119.847 141.732 141.732"
	 xml:space="preserve">
<sodipodi:namedview  fit-margin-left="0" fit-margin-top="0" showgrid="false" inkscape:cy="189.24062" inkscape:cx="484.0582" inkscape:zoom="0.7" borderopacity="1.0" bordercolor="#666666" pagecolor="#ffffff" id="base" inkscape:window-maximized="1" inkscape:window-y="-8" inkscape:window-x="-8" inkscape:window-height="1018" inkscape:window-width="1920" inkscape:current-layer="layer1" inkscape:document-units="px" fit-margin-bottom="0" inkscape:pageopacity="0.0" fit-margin-right="0" inkscape:pageshadow="2">
	</sodipodi:namedview>
<path id="path3082" inkscape:connector-curvature="0" d="M221.43,176.333c0,1.758,0.529,3.467,1.587,5.127
	c1.059,1.66,2.417,3.019,4.077,4.077s3.369,1.587,5.127,1.587c1.823,0,3.557-0.529,5.2-1.587c1.645-1.058,2.987-2.425,4.028-4.102
	c1.042-1.676,1.562-3.377,1.562-5.103c0-1.791-0.521-3.516-1.562-5.176c-1.041-1.66-2.393-3.011-4.053-4.053
	s-3.385-1.562-5.176-1.562c-1.725,0-3.426,0.521-5.103,1.562c-1.676,1.042-3.043,2.384-4.102,4.028
	C221.96,172.777,221.43,174.51,221.43,176.333z M286.225,205.143c0-1.758-0.52-3.477-1.562-5.152
	c-1.041-1.676-2.385-3.043-4.027-4.102c-1.645-1.059-3.377-1.587-5.201-1.587c-1.822,0-3.557,0.528-5.199,1.587
	c-1.645,1.059-2.986,2.426-4.029,4.102c-1.041,1.676-1.562,3.395-1.562,5.152c0,1.725,0.521,3.426,1.562,5.102
	c1.043,1.676,2.385,3.043,4.029,4.102c1.643,1.059,3.377,1.588,5.199,1.588c1.824,0,3.557-0.529,5.201-1.588
	c1.643-1.059,2.986-2.426,4.027-4.102C285.705,208.568,286.225,206.867,286.225,205.143z M248.92,163.638
	c3.289,3.874,4.932,8.105,4.932,12.695c0,2.604-0.594,5.192-1.781,7.764s-2.84,4.916-4.957,7.031
	c-2.115,2.116-4.468,3.776-7.056,4.98s-5.2,1.808-7.837,1.808c-3.743,0-7.267-1.035-10.571-3.102
	c-3.304-2.066-5.965-4.777-7.983-8.13c-2.018-3.353-3.027-6.803-3.027-10.352c0-6.869,2.979-12.533,8.936-16.992
	s17.383-6.738,34.277-6.836c7,0,13.143,0.553,18.434,1.66c5.289,1.107,9.953,2.718,13.988,4.834
	c4.037,2.116,7.617,4.688,10.742,7.715v10.791c-2.375-2.246-4.875-4.224-7.494-5.933c-2.621-1.709-5.525-3.182-8.717-4.419
	c-3.189-1.237-6.754-2.181-10.693-2.832c-3.938-0.651-8.365-0.977-13.281-0.977C254.389,163.345,251.752,163.442,248.92,163.638z
	 M297.016,205.143c0,3.092-0.545,5.988-1.635,8.691c-1.092,2.701-3.143,5.176-6.152,7.422c-3.012,2.246-7.406,4.076-13.184,5.492
	c-5.779,1.416-13.176,2.141-22.193,2.174c-5.24,0-10.066-0.334-14.477-1.002c-4.41-0.668-8.309-1.596-11.694-2.783
	c-3.385-1.188-6.461-2.637-9.229-4.346c-2.767-1.709-5.371-3.734-7.812-6.078v-10.791c3.093,2.93,6.519,5.443,10.278,7.543
	s8.105,3.736,13.037,4.908s10.556,1.758,16.87,1.758c2.475,0,5.111-0.098,7.91-0.293c-1.496-1.824-2.686-3.85-3.564-6.08
	s-1.318-4.436-1.318-6.615c0-2.637,0.604-5.258,1.807-7.861c1.205-2.605,2.85-4.949,4.932-7.032
	c2.084-2.083,4.428-3.727,7.031-4.932c2.605-1.205,5.209-1.807,7.812-1.807c2.768,0,5.486,0.602,8.154,1.807
	c2.67,1.205,5.006,2.832,7.008,4.883s3.572,4.386,4.711,7.007C296.448,199.828,297.016,202.473,297.016,205.143L297.016,205.143z"/>
</svg>
