<?xml version="1.0" encoding="utf-8"?>
<!-- Generator: Adobe Illustrator 16.0.4, SVG Export Plug-In . SVG Version: 6.00 Build 0)  -->
<!DOCTYPE svg PUBLIC "-//W3C//DTD SVG 1.1//EN" "http://www.w3.org/Graphics/SVG/1.1/DTD/svg11.dtd">
<svg version="1.1"
	 id="svg2" xmlns:dc="http://purl.org/dc/elements/1.1/" xmlns:cc="http://creativecommons.org/ns#" xmlns:rdf="http://www.w3.org/1999/02/22-rdf-syntax-ns#" xmlns:svg="http://www.w3.org/2000/svg" xmlns:sodipodi="http://sodipodi.sourceforge.net/DTD/sodipodi-0.dtd" xmlns:inkscape="http://www.inkscape.org/namespaces/inkscape" sodipodi:docname="Novo documento 1" inkscape:version="0.48.2 r9819"
	 xmlns="http://www.w3.org/2000/svg" xmlns:xlink="http://www.w3.org/1999/xlink" x="0px" y="0px" width="141.732px"
	 height="141.732px" viewBox="182.962 119.847 141.732 141.732" enable-background="new 182.962 119.847 141.732 141.732"
	 xml:space="preserve">
<sodipodi:namedview  fit-margin-left="0" fit-margin-top="0" showgrid="false" inkscape:cy="189.24062" inkscape:cx="484.0582" inkscape:zoom="0.7" borderopacity="1.0" bordercolor="#666666" pagecolor="#ffffff" id="base" inkscape:window-maximized="1" inkscape:window-y="-8" inkscape:window-x="-8" inkscape:window-height="1018" inkscape:window-width="1920" inkscape:current-layer="layer1" inkscape:document-units="px" fit-margin-bottom="0" inkscape:pageopacity="0.0" fit-margin-right="0" inkscape:pageshadow="2">
	</sodipodi:namedview>
<path id="path3055" inkscape:connector-curvature="0" d="M297.016,218.081l-14.404-14.404l-14.355,14.404l-14.404-14.404
	l-14.404,14.404l-14.404-14.404l-14.404,14.404v-12.012l14.404-14.404l14.404,14.404l14.404-14.404l14.404,14.404l14.355-14.404
	l14.404,14.404V218.081z M297.016,189.761l-14.404-14.404l-14.355,14.404l-14.404-14.404l-14.404,14.404l-14.404-14.404
	l-14.404,14.404V177.75l14.404-14.404l14.404,14.404l14.404-14.404l14.404,14.404l14.355-14.404l14.404,14.404V189.761z"/>
</svg>
