<?xml version="1.0" encoding="utf-8"?>
<!-- Generator: Adobe Illustrator 16.0.4, SVG Export Plug-In . SVG Version: 6.00 Build 0)  -->
<!DOCTYPE svg PUBLIC "-//W3C//DTD SVG 1.1//EN" "http://www.w3.org/Graphics/SVG/1.1/DTD/svg11.dtd">
<svg version="1.1"
	 id="svg2" xmlns:dc="http://purl.org/dc/elements/1.1/" xmlns:cc="http://creativecommons.org/ns#" xmlns:rdf="http://www.w3.org/1999/02/22-rdf-syntax-ns#" xmlns:svg="http://www.w3.org/2000/svg" xmlns:sodipodi="http://sodipodi.sourceforge.net/DTD/sodipodi-0.dtd" xmlns:inkscape="http://www.inkscape.org/namespaces/inkscape" sodipodi:docname="Novo documento 1" inkscape:version="0.48.2 r9819"
	 xmlns="http://www.w3.org/2000/svg" xmlns:xlink="http://www.w3.org/1999/xlink" x="0px" y="0px" width="141.732px"
	 height="141.732px" viewBox="182.962 119.847 141.732 141.732" enable-background="new 182.962 119.847 141.732 141.732"
	 xml:space="preserve">
<sodipodi:namedview  fit-margin-left="0" fit-margin-top="0" showgrid="false" inkscape:cy="189.24062" inkscape:cx="484.0582" inkscape:zoom="0.7" borderopacity="1.0" bordercolor="#666666" pagecolor="#ffffff" id="base" inkscape:window-maximized="1" inkscape:window-y="-8" inkscape:window-x="-8" inkscape:window-height="1018" inkscape:window-width="1920" inkscape:current-layer="layer1" inkscape:document-units="px" fit-margin-bottom="0" inkscape:pageopacity="0.0" fit-margin-right="0" inkscape:pageshadow="2">
	</sodipodi:namedview>
<path id="path3049" inkscape:connector-curvature="0" d="M261.713,184.83c0.131-4.362,0.619-8.252,1.465-11.67
	c0.848-3.418,2.059-6.576,3.639-9.473c1.578-2.897,3.539-5.607,5.883-8.13c2.344-2.523,5.242-5.201,8.691-8.033h12.744
	c-3.58,2.996-6.592,5.73-9.033,8.204s-4.557,5.135-6.348,7.983c-1.789,2.848-3.205,5.957-4.248,9.326
	c-1.041,3.369-1.709,7.3-2.002,11.792h18.018v11.279h-18.018c0.293,5.729,1.303,10.75,3.027,15.064
	c1.727,4.312,4.094,8.211,7.105,11.693c3.01,3.482,6.844,7.162,11.498,11.035h-12.744c-4.523-3.775-8.178-7.406-10.961-10.889
	s-4.9-7.365-6.348-11.645c-1.449-4.281-2.238-9.367-2.369-15.26h-15.82c-0.129,5.893-0.918,10.979-2.367,15.26
	c-1.449,4.279-3.564,8.162-6.348,11.645s-6.438,7.113-10.963,10.889H213.52c4.818-4.004,8.709-7.715,11.67-11.133
	c2.963-3.418,5.299-7.268,7.008-11.547c1.709-4.281,2.678-9.318,2.904-15.113h-17.969V184.83h17.969
	c-0.324-5.762-1.334-10.734-3.027-14.917c-1.691-4.184-4.035-8-7.031-11.45c-2.994-3.45-6.836-7.097-11.523-10.938h12.695
	c3.451,2.832,6.357,5.518,8.717,8.058c2.359,2.539,4.32,5.24,5.883,8.105c1.562,2.864,2.768,6.014,3.613,9.448
	c0.848,3.434,1.336,7.332,1.465,11.694H261.713z"/>
</svg>
