<?xml version="1.0" encoding="utf-8"?>
<!-- Generator: Adobe Illustrator 16.0.4, SVG Export Plug-In . SVG Version: 6.00 Build 0)  -->
<!DOCTYPE svg PUBLIC "-//W3C//DTD SVG 1.1//EN" "http://www.w3.org/Graphics/SVG/1.1/DTD/svg11.dtd">
<svg version="1.1"
	 id="svg2" sodipodi:docname="Novo documento 1" inkscape:version="0.48.2 r9819" xmlns:inkscape="http://www.inkscape.org/namespaces/inkscape" xmlns:sodipodi="http://sodipodi.sourceforge.net/DTD/sodipodi-0.dtd" xmlns:svg="http://www.w3.org/2000/svg" xmlns:rdf="http://www.w3.org/1999/02/22-rdf-syntax-ns#" xmlns:cc="http://creativecommons.org/ns#" xmlns:dc="http://purl.org/dc/elements/1.1/"
	 xmlns="http://www.w3.org/2000/svg" xmlns:xlink="http://www.w3.org/1999/xlink" x="0px" y="0px" width="141.732px"
	 height="141.732px" viewBox="0 0 141.732 141.732" enable-background="new 0 0 141.732 141.732" xml:space="preserve">
<sodipodi:namedview  inkscape:pageshadow="2" fit-margin-right="0" inkscape:pageopacity="0.0" inkscape:window-height="1018" fit-margin-bottom="0" inkscape:window-x="-8" inkscape:document-units="px" inkscape:window-y="-8" inkscape:window-maximized="1" inkscape:window-width="1920" inkscape:current-layer="layer1" fit-margin-left="0" fit-margin-top="0" showgrid="false" inkscape:cy="189.24062" inkscape:cx="484.0582" inkscape:zoom="0.7" borderopacity="1.0" bordercolor="#666666" pagecolor="#ffffff" id="base">
	</sodipodi:namedview>
<path fill="none" stroke="#1D1D1B" stroke-width="8" stroke-linecap="round" stroke-linejoin="bevel" stroke-miterlimit="10" d="
	M60.779,14.92C38.173,17.611,32.79,36.449,32.252,57.71c0.539,16.417,12.38,26.645,26.645,36.871
	c12.109,8.074,10.227,26.375-4.309,28.527c16.417,8.074,26.645,1.883,34.18-8.342c4.574-8.076,4.574-18.304-5.381-26.375
	c8.071,4.034,14.263,6.188,24.487,1.883c-6.188-1.883-10.227-2.959-12.38-9.148c-4.036-14.265,12.649-16.146,12.649-36.602
	c0-12.111-10.768-29.604-26.913-29.604"/>
<path fill="none" stroke="#1D1D1B" stroke-width="8" stroke-linecap="round" stroke-linejoin="bevel" stroke-miterlimit="10" d="
	M82.169,16.266c5.385,5.382,13.456,12.107,8.073,26.912c-5.382-9.421-14.802-8.074-14.802-2.691
	c4.037,9.42,2.69,21.53-10.766,24.221c4.036-9.419,2.692-16.146-8.072-14.801c-6.459,0.538-8.881-7.805-8.073-14.803
	c1.345-10.767,7.804-18.031,13.456-20.186"/>
</svg>
