<?xml version="1.0" encoding="utf-8"?>
<!-- Generator: Adobe Illustrator 24.3.0, SVG Export Plug-In . SVG Version: 6.00 Build 0)  -->
<svg version="1.1" id="Livello_1" xmlns="http://www.w3.org/2000/svg" xmlns:xlink="http://www.w3.org/1999/xlink" x="0px" y="0px"
	 viewBox="0 0 417.1 70.5" style="enable-background:new 0 0 417.1 70.5;" xml:space="preserve">
<style type="text/css">
	.st0{opacity:0.5;fill:#EE82EE;enable-background:new    ;}
	.st1{opacity:0.9;fill:none;stroke:#EE82EE;stroke-width:0.5;enable-background:new    ;}
	.st2{font-family:'ArialMT';}
	.st3{font-size:7.2px;}
	.st4{font-size:5px;}
	.st5{fill:none;stroke:#000000;stroke-width:0.1;stroke-miterlimit:10;}
	.st6{font-size:3.5px;}
	.st7{opacity:0.5;fill:#008000;enable-background:new    ;}
	.st8{opacity:0.5;fill:#808080;enable-background:new    ;}
	.st9{opacity:0.5;fill:#0000FF;enable-background:new    ;}
</style>
<g transform="translate(560.802695652174,694.054)">
	<circle class="st0" cx="-494.9" cy="-665.6" r="17.6"/>
	<circle class="st0" cx="-494.9" cy="-665.6" r="3.4"/>
	<circle class="st1" cx="-494.9" cy="-665.6" r="11.1"/>
	<text transform="matrix(1 0 0 1 -506.505 -670.5717)" class="st2 st3">articolo</text>
	<text transform="matrix(1 0 0 1 -468.3265 -653.0921)" class="st2 st4">dimensione </text>
	<text transform="matrix(1 0 0 1 -468.3265 -648.0921)" class="st2 st4">pagina di  </text>
	<text transform="matrix(1 0 0 1 -468.3265 -643.0921)" class="st2 st4">discussione</text>
	<line class="st5" x1="-494.9" y1="-654.4" x2="-470.5" y2="-654.4"/>
	<text transform="matrix(1 0 0 1 -552.7922 -676.7154)" class="st2 st4">dimensione </text>
	<text transform="matrix(1 0 0 1 -552.7922 -671.7154)" class="st2 st4">articolo</text>
	<line class="st5" x1="-524.4" y1="-678.1" x2="-503.8" y2="-678.1"/>
	<text transform="matrix(1 0 0 1 -552.7922 -664.9037)" class="st2 st4">dimensione </text>
	<text transform="matrix(1 0 0 1 -552.7922 -659.9037)" class="st2 st4">incipit</text>
	<line class="st5" x1="-524.4" y1="-666.2" x2="-494.9" y2="-666.2"/>
</g>
<line class="st5" x1="136.3" y1="53" x2="136.3" y2="5.4"/>
<g>
	<circle class="st0" cx="180.5" cy="23.8" r="17.6"/>
	<text transform="matrix(1 0 0 1 158.003 51.8696)" class="st2 st4">scienze umanistiche</text>
	<text transform="matrix(1 0 0 1 165.0323 57.5009)" class="st2 st6">Letteratura italiana,  </text>
	<text transform="matrix(1 0 0 1 163.8323 61.7009)" class="st2 st6">Storia, Storia dell&apos;arte</text>
</g>
<g>
	<circle class="st7" cx="244.6" cy="23.8" r="17.6"/>
	<text transform="matrix(1 0 0 1 227.2689 51.8696)" class="st2 st4">scienze naturali</text>
</g>
<g>
	<circle class="st8" cx="308.8" cy="23.8" r="17.6"/>
	<text transform="matrix(1 0 0 1 292.6464 51.8696)" class="st2 st4">scienze sociali</text>
</g>
<g>
	<circle class="st9" cx="372.9" cy="23.8" r="17.6"/>
	<text transform="matrix(1 0 0 1 356.2182 51.8696)" class="st2 st4">scienze formali</text>
</g>
<text transform="matrix(1 0 0 1 230.1079 57.5009)" class="st2 st6">Biologia, Chimica,  </text>
<text transform="matrix(1 0 0 1 224.0079 61.7009)" class="st2 st6">Fisica, Scienze della Terra</text>
<text transform="matrix(1 0 0 1 285.8454 57.5009)" class="st2 st6">Geografia, Diritto e Economia</text>
<text transform="matrix(1 0 0 1 364.2434 57.5009)" class="st2 st6">Informatica</text>
</svg>
