<?xml version="1.0" encoding="utf-8"?>
<!-- Generator: Adobe Illustrator 25.0.0, SVG Export Plug-In . SVG Version: 6.00 Build 0)  -->
<svg version="1.1" id="Livello_1" xmlns="http://www.w3.org/2000/svg" xmlns:xlink="http://www.w3.org/1999/xlink" x="0px" y="0px"
	 viewBox="0 0 136.3 70.5" style="enable-background:new 0 0 136.3 70.5;" xml:space="preserve">
<style type="text/css">
	.st0{opacity:0.5;fill:#0000FF;enable-background:new    ;}
	.st1{opacity:0.9;fill:none;stroke:#0000FF;stroke-width:0.5;enable-background:new    ;}
	.st2{font-family:'ArialMT';}
	.st3{font-size:7.2px;}
	.st4{font-size:5px;}
	.st5{fill:none;stroke:#000000;stroke-width:0.1;stroke-miterlimit:10;}
	.st6{opacity:0.5;fill:#1F77B4;enable-background:new    ;}
	.st7{opacity:0.5;fill:#FF7F0E;enable-background:new    ;}
</style>
<g transform="translate(560.802695652174,694.054)">
	<circle class="st0" cx="-494.9" cy="-655.6" r="17.6"/>
	<circle class="st0" cx="-494.9" cy="-655.6" r="3.4"/>
	<circle class="st1" cx="-494.9" cy="-655.6" r="11.1"/>
	<text transform="matrix(1 0 0 1 -506.505 -679.5717)" class="st2 st3">articolo</text>
	<text transform="matrix(1 0 0 1 -468.3265 -643.0921)" class="st2 st4">dimensione </text>
	<text transform="matrix(1 0 0 1 -468.3265 -638.0921)" class="st2 st4">pagina di  </text>
	<text transform="matrix(1 0 0 1 -468.3265 -633.0921)" class="st2 st4">discussione</text>
	<line class="st5" x1="-494.9" y1="-644.4" x2="-470.5" y2="-644.4"/>
	<text transform="matrix(1 0 0 1 -552.7922 -666.7154)" class="st2 st4">dimensione </text>
	<text transform="matrix(1 0 0 1 -552.7922 -661.7154)" class="st2 st4">articolo</text>
	<line class="st5" x1="-524.4" y1="-668.1" x2="-503.8" y2="-668.1"/>
	<text transform="matrix(1 0 0 1 -552.7922 -654.9037)" class="st2 st4">dimensione </text>
	<text transform="matrix(1 0 0 1 -552.7922 -649.9037)" class="st2 st4">incipit</text>
	<line class="st5" x1="-524.4" y1="-656.2" x2="-494.9" y2="-656.2"/>
</g>
<line class="st5" x1="146.3" y1="53" x2="146.3" y2="5.4"/>
<g>
	<circle class="st6" cx="180.5" cy="28.5" r="17.6"/>
	<text transform="matrix(1 0 0 1 171.6046 56.5237)" class="st2 st4">Biologia</text>
</g>
<g>
	<circle class="st7" cx="225.7" cy="28.5" r="17.6"/>
	<text transform="matrix(1 0 0 1 216.6708 56.5237)" class="st2 st4">Chimica</text>
</g>
<g>
	<circle class="st6" cx="270.9" cy="28.5" r="17.6"/>
	<text transform="matrix(1 0 0 1 262.0046 56.5237)" class="st2 st4">Biologia</text>
</g>
<g>
	<circle class="st6" cx="316.1" cy="28.5" r="17.6"/>
	<text transform="matrix(1 0 0 1 307.2046 56.5237)" class="st2 st4">Biologia</text>
</g>
<g>
	<circle class="st6" cx="361.3" cy="28.5" r="17.6"/>
	<text transform="matrix(1 0 0 1 352.4046 56.5237)" class="st2 st4">Biologia</text>
</g>
<g>
	<circle class="st6" cx="406.5" cy="28.5" r="17.6"/>
	<text transform="matrix(1 0 0 1 397.6046 56.5237)" class="st2 st4">Biologia</text>
</g>
<g>
	<circle class="st6" cx="451.7" cy="28.5" r="17.6"/>
	<text transform="matrix(1 0 0 1 442.8046 56.5237)" class="st2 st4">Biologia</text>
</g>
<g>
	<circle class="st6" cx="496.9" cy="28.5" r="17.6"/>
	<text transform="matrix(1 0 0 1 488.0046 56.5237)" class="st2 st4">Biologia</text>
</g>
<g>
	<circle class="st6" cx="542.1" cy="28.5" r="17.6"/>
	<text transform="matrix(1 0 0 1 533.2047 56.5237)" class="st2 st4">Biologia</text>
</g>
<g>
	<circle class="st6" cx="587.3" cy="28.5" r="17.6"/>
	<text transform="matrix(1 0 0 1 578.4047 56.5237)" class="st2 st4">Biologia</text>
</g>
<g>
	<circle class="st6" cx="632.5" cy="28.5" r="17.6"/>
	<text transform="matrix(1 0 0 1 623.6047 56.5237)" class="st2 st4">Biologia</text>
</g>
<g>
	<circle class="st6" cx="677.7" cy="28.5" r="17.6"/>
	<text transform="matrix(1 0 0 1 668.8047 56.5237)" class="st2 st4">Biologia</text>
</g>
<g>
	<circle class="st6" cx="722.9" cy="28.5" r="17.6"/>
	<text transform="matrix(1 0 0 1 714.0047 56.5237)" class="st2 st4">Biologia</text>
</g>
</svg>
