<?xml version="1.0" encoding="utf-8"?>
<!-- Generator: Adobe Illustrator 16.0.4, SVG Export Plug-In . SVG Version: 6.00 Build 0)  -->
<!DOCTYPE svg PUBLIC "-//W3C//DTD SVG 1.1//EN" "http://www.w3.org/Graphics/SVG/1.1/DTD/svg11.dtd">
<svg version="1.1"
	 id="svg2" xmlns:dc="http://purl.org/dc/elements/1.1/" xmlns:cc="http://creativecommons.org/ns#" xmlns:rdf="http://www.w3.org/1999/02/22-rdf-syntax-ns#" xmlns:svg="http://www.w3.org/2000/svg" xmlns:sodipodi="http://sodipodi.sourceforge.net/DTD/sodipodi-0.dtd" xmlns:inkscape="http://www.inkscape.org/namespaces/inkscape" sodipodi:docname="Novo documento 1" inkscape:version="0.48.2 r9819"
	 xmlns="http://www.w3.org/2000/svg" xmlns:xlink="http://www.w3.org/1999/xlink" x="0px" y="0px" width="141.732px"
	 height="141.732px" viewBox="182.962 119.847 141.732 141.732" enable-background="new 182.962 119.847 141.732 141.732"
	 xml:space="preserve">
<sodipodi:namedview  fit-margin-left="0" fit-margin-top="0" showgrid="false" inkscape:cy="189.24062" inkscape:cx="484.0582" inkscape:zoom="0.7" borderopacity="1.0" bordercolor="#666666" pagecolor="#ffffff" id="base" inkscape:window-maximized="1" inkscape:window-y="-8" inkscape:window-x="-8" inkscape:window-height="1018" inkscape:window-width="1920" inkscape:current-layer="layer1" inkscape:document-units="px" fit-margin-bottom="0" inkscape:pageopacity="0.0" fit-margin-right="0" inkscape:pageshadow="2">
	</sodipodi:namedview>
<path id="path3079" inkscape:connector-curvature="0" d="M270.404,174.526c2.312,1.53,4.451,3.329,6.422,5.396
	c1.969,2.067,3.637,4.256,5.004,6.567s2.441,4.736,3.223,7.275s1.172,5.127,1.172,7.764c0,3.906-0.902,7.812-2.709,11.719
	s-4.273,7.422-7.398,10.547s-6.641,5.59-10.547,7.396s-7.828,2.711-11.768,2.711c-3.873,0-7.747-0.895-11.621-2.686
	s-7.397-4.256-10.571-7.398c-3.174-3.141-5.664-6.656-7.471-10.547c-1.807-3.889-2.71-7.803-2.71-11.742
	c0-3.418,0.667-6.803,2.002-10.156c1.335-3.353,3.206-6.486,5.615-9.399s5.127-5.396,8.154-7.446
	c-2.344-1.627-4.451-3.426-6.323-5.396s-3.523-4.142-4.956-6.519s-2.539-4.875-3.32-7.495s-1.172-5.151-1.172-7.593h10.791
	c0,2.897,0.903,6.055,2.71,9.473s4.37,6.291,7.69,8.618s7.048,3.491,11.181,3.491c3.191,0,6.121-0.684,8.789-2.051
	c2.67-1.367,4.988-3.198,6.959-5.493c1.969-2.295,3.441-4.655,4.418-7.08s1.465-4.745,1.465-6.958h10.791
	c0,2.604-0.391,5.176-1.172,7.715s-1.855,4.964-3.223,7.275s-3.027,4.492-4.98,6.543S272.747,172.931,270.404,174.526
	L270.404,174.526z M232.22,201.528c0,2.604,0.594,5.184,1.782,7.738c1.188,2.557,2.856,4.908,5.005,7.057s4.5,3.816,7.056,5.004
	c2.555,1.189,5.135,1.783,7.739,1.783c2.637,0,5.258-0.602,7.861-1.807c2.605-1.205,4.949-2.848,7.031-4.932
	c2.084-2.084,3.729-4.428,4.932-7.031c1.205-2.604,1.807-5.209,1.807-7.812c0-2.182-0.496-4.518-1.488-7.007
	c-0.994-2.49-2.449-4.858-4.371-7.104c-1.92-2.246-4.23-4.053-6.934-5.42c-2.701-1.367-5.646-2.051-8.838-2.051
	c-4.133,0-7.861,1.164-11.181,3.491s-5.884,5.2-7.69,8.618S232.22,198.632,232.22,201.528L232.22,201.528z"/>
</svg>
