<?xml version="1.0" encoding="utf-8"?>
<!-- Generator: Adobe Illustrator 16.0.4, SVG Export Plug-In . SVG Version: 6.00 Build 0)  -->
<!DOCTYPE svg PUBLIC "-//W3C//DTD SVG 1.1//EN" "http://www.w3.org/Graphics/SVG/1.1/DTD/svg11.dtd">
<svg version="1.1"
	 id="svg2" xmlns:dc="http://purl.org/dc/elements/1.1/" xmlns:cc="http://creativecommons.org/ns#" xmlns:rdf="http://www.w3.org/1999/02/22-rdf-syntax-ns#" xmlns:svg="http://www.w3.org/2000/svg" xmlns:sodipodi="http://sodipodi.sourceforge.net/DTD/sodipodi-0.dtd" xmlns:inkscape="http://www.inkscape.org/namespaces/inkscape" sodipodi:docname="Novo documento 1" inkscape:version="0.48.2 r9819"
	 xmlns="http://www.w3.org/2000/svg" xmlns:xlink="http://www.w3.org/1999/xlink" x="0px" y="0px" width="141.732px"
	 height="141.732px" viewBox="182.962 119.847 141.732 141.732" enable-background="new 182.962 119.847 141.732 141.732"
	 xml:space="preserve">
<sodipodi:namedview  fit-margin-left="0" fit-margin-top="0" showgrid="false" inkscape:cy="189.24062" inkscape:cx="484.0582" inkscape:zoom="0.7" borderopacity="1.0" bordercolor="#666666" pagecolor="#ffffff" id="base" inkscape:window-maximized="1" inkscape:window-y="-8" inkscape:window-x="-8" inkscape:window-height="1018" inkscape:window-width="1920" inkscape:current-layer="layer1" inkscape:document-units="px" fit-margin-bottom="0" inkscape:pageopacity="0.0" fit-margin-right="0" inkscape:pageshadow="2">
	</sodipodi:namedview>
<path id="path3058" inkscape:connector-curvature="0" d="M210.638,207.217h86.377v10.303h-86.377V207.217z M243.011,196.376h-32.373
	v-10.889h21.582c0-2.637,0.603-5.249,1.807-7.837s2.849-4.923,4.932-7.007c2.083-2.083,4.427-3.727,7.031-4.932
	c2.604-1.204,5.225-1.807,7.862-1.807s5.273,0.61,7.91,1.831s4.963,2.84,6.982,4.858c2.018,2.019,3.637,4.346,4.857,6.982
	s1.832,5.273,1.832,7.91h21.582v10.889h-32.373v-10.889c0-1.758-0.529-3.467-1.588-5.127c-1.057-1.66-2.416-3.019-4.076-4.077
	c-1.66-1.058-3.369-1.587-5.127-1.587c-1.791,0-3.516,0.529-5.176,1.587c-1.661,1.058-3.02,2.417-4.078,4.077
	s-1.587,3.369-1.587,5.127V196.376z"/>
</svg>
