<?xml version="1.0" encoding="utf-8"?>
<!-- Generator: Adobe Illustrator 16.0.4, SVG Export Plug-In . SVG Version: 6.00 Build 0)  -->
<!DOCTYPE svg PUBLIC "-//W3C//DTD SVG 1.1//EN" "http://www.w3.org/Graphics/SVG/1.1/DTD/svg11.dtd">
<svg version="1.1"
	 id="svg2" xmlns:dc="http://purl.org/dc/elements/1.1/" xmlns:cc="http://creativecommons.org/ns#" xmlns:rdf="http://www.w3.org/1999/02/22-rdf-syntax-ns#" xmlns:svg="http://www.w3.org/2000/svg" xmlns:sodipodi="http://sodipodi.sourceforge.net/DTD/sodipodi-0.dtd" xmlns:inkscape="http://www.inkscape.org/namespaces/inkscape" sodipodi:docname="Novo documento 1" inkscape:version="0.48.2 r9819"
	 xmlns="http://www.w3.org/2000/svg" xmlns:xlink="http://www.w3.org/1999/xlink" x="0px" y="0px" width="141.732px"
	 height="141.732px" viewBox="182.962 119.847 141.732 141.732" enable-background="new 182.962 119.847 141.732 141.732"
	 xml:space="preserve">
<sodipodi:namedview  fit-margin-left="0" fit-margin-top="0" showgrid="false" inkscape:cy="189.24062" inkscape:cx="484.0582" inkscape:zoom="0.7" borderopacity="1.0" bordercolor="#666666" pagecolor="#ffffff" id="base" inkscape:window-maximized="1" inkscape:window-y="-8" inkscape:window-x="-8" inkscape:window-height="1018" inkscape:window-width="1920" inkscape:current-layer="layer1" inkscape:document-units="px" fit-margin-bottom="0" inkscape:pageopacity="0.0" fit-margin-right="0" inkscape:pageshadow="2">
	</sodipodi:namedview>
<path id="path3064_1_" inkscape:connector-curvature="0" d="M266.433,162.181v57.064c0,6.704,2.047,10.057,6.143,10.057
	c2.245,0,3.739-0.963,4.481-2.891c0.745-1.926,1.116-4.481,1.116-7.667l-6.735,4.051V212.51l11.741-7.144l11.74,8.464v8.965
	l-6.689-4.051c0,3.398-0.622,6.697-1.865,9.896c-1.245,3.202-3.05,5.789-5.416,7.76c-2.366,1.972-5.158,2.958-8.373,2.958
	c-3.216,0-6.06-0.955-8.533-2.866c-2.472-1.912-4.376-4.414-5.71-7.509s-2.002-6.34-2.002-9.738v-57.064
	c0-4.065-0.524-6.758-1.571-8.078c-1.046-1.32-2.388-1.979-4.026-1.979c-2.518,0-4.172,0.879-4.96,2.639
	c-0.788,1.759-1.183,4.232-1.183,7.417v60.387h-10.057v-60.387c0-4.096-0.532-6.796-1.593-8.1c-1.061-1.305-2.397-1.957-4.004-1.957
	c-4.096,0-6.144,3.352-6.144,10.057v60.387h-10.057v-60.387c0-3.398,0.668-6.644,2.002-9.738c1.334-3.094,3.231-5.597,5.688-7.508
	c2.458-1.912,5.293-2.867,8.51-2.867c4.429,0,8.009,1.744,10.739,5.233c3.034-3.489,6.72-5.233,11.058-5.233
	c3.245,0,6.044,0.949,8.395,2.843c2.352,1.897,4.157,4.399,5.415,7.509C265.803,155.529,266.433,158.782,266.433,162.181z"/>
</svg>
