<?xml version="1.0" encoding="utf-8"?>
<!-- Generator: Adobe Illustrator 16.0.4, SVG Export Plug-In . SVG Version: 6.00 Build 0)  -->
<!DOCTYPE svg PUBLIC "-//W3C//DTD SVG 1.1//EN" "http://www.w3.org/Graphics/SVG/1.1/DTD/svg11.dtd">
<svg version="1.1"
	 id="svg2" xmlns:dc="http://purl.org/dc/elements/1.1/" xmlns:cc="http://creativecommons.org/ns#" xmlns:rdf="http://www.w3.org/1999/02/22-rdf-syntax-ns#" xmlns:svg="http://www.w3.org/2000/svg" xmlns:sodipodi="http://sodipodi.sourceforge.net/DTD/sodipodi-0.dtd" xmlns:inkscape="http://www.inkscape.org/namespaces/inkscape" sodipodi:docname="Novo documento 1" inkscape:version="0.48.2 r9819"
	 xmlns="http://www.w3.org/2000/svg" xmlns:xlink="http://www.w3.org/1999/xlink" x="0px" y="0px" width="141.732px"
	 height="141.732px" viewBox="182.962 119.847 141.732 141.732" enable-background="new 182.962 119.847 141.732 141.732"
	 xml:space="preserve">
<sodipodi:namedview  fit-margin-left="0" fit-margin-top="0" showgrid="false" inkscape:cy="189.24062" inkscape:cx="484.0582" inkscape:zoom="0.7" borderopacity="1.0" bordercolor="#666666" pagecolor="#ffffff" id="base" inkscape:window-maximized="1" inkscape:window-y="-8" inkscape:window-x="-8" inkscape:window-height="1018" inkscape:window-width="1920" inkscape:current-layer="layer1" inkscape:document-units="px" fit-margin-bottom="0" inkscape:pageopacity="0.0" fit-margin-right="0" inkscape:pageshadow="2">
	</sodipodi:namedview>
<path id="path3076" inkscape:connector-curvature="0" d="M277.338,235.634c-2.734,4.688-5.908,8.887-9.521,12.598l-7.715-7.715
	c4.428-3.061,8.301-8.252,11.621-15.576c-3.418-7.943-6.029-16.92-7.836-26.929c-1.807-10.01-3.068-20.875-3.785-32.593
	c0-4.362-0.561-7.251-1.684-8.667s-2.564-2.124-4.322-2.124c-2.766,0-4.557,0.936-5.371,2.808c-0.813,1.872-1.22,4.533-1.22,7.983
	v64.795h-10.791v-64.795c0-4.395-0.569-7.292-1.709-8.691c-1.14-1.399-2.571-2.099-4.297-2.1c-4.395,0-6.592,3.597-6.592,10.791
	v64.795h-10.791v-64.795c0-3.646,0.716-7.129,2.148-10.449c1.433-3.32,3.467-6.005,6.104-8.057c2.637-2.05,5.681-3.076,9.131-3.076
	c4.753,0,8.594,1.872,11.523,5.615c3.255-3.743,7.21-5.615,11.865-5.615c4.754,0,8.594,1.872,11.523,5.615
	c3.256-3.743,7.227-5.615,11.914-5.615c3.451,0,6.453,1.026,9.01,3.076c2.555,2.051,4.492,4.737,5.811,8.057
	c1.318,3.32,1.977,6.804,1.977,10.449c-0.293,5.306-0.74,10.612-1.342,15.918c-0.604,5.306-1.352,10.417-2.246,15.332
	c-0.896,4.916-2.02,9.741-3.369,14.478c-1.352,4.736-2.971,9.336-4.859,13.795c3.549,7.357,7.488,12.549,11.816,15.576l-7.715,7.715
	C282.938,244.456,279.846,240.257,277.338,235.634z M277.143,209.755c1.172-4.361,2.197-8.993,3.076-13.892
	c0.879-4.899,1.588-9.888,2.125-14.966s0.936-10.237,1.195-15.479c0-3.353-0.398-5.989-1.195-7.91c-0.799-1.92-2.4-2.88-4.811-2.881
	c-2.766,0-4.557,0.936-5.371,2.808c-0.812,1.872-1.221,4.533-1.221,7.983C271.756,181.857,273.823,196.637,277.143,209.755z"/>
</svg>
