<?xml version="1.0" encoding="utf-8"?>
<!-- Generator: Adobe Illustrator 16.0.4, SVG Export Plug-In . SVG Version: 6.00 Build 0)  -->
<!DOCTYPE svg PUBLIC "-//W3C//DTD SVG 1.1//EN" "http://www.w3.org/Graphics/SVG/1.1/DTD/svg11.dtd">
<svg version="1.1"
	 id="svg2" sodipodi:docname="Novo documento 1" inkscape:version="0.48.2 r9819" xmlns:inkscape="http://www.inkscape.org/namespaces/inkscape" xmlns:sodipodi="http://sodipodi.sourceforge.net/DTD/sodipodi-0.dtd" xmlns:svg="http://www.w3.org/2000/svg" xmlns:rdf="http://www.w3.org/1999/02/22-rdf-syntax-ns#" xmlns:cc="http://creativecommons.org/ns#" xmlns:dc="http://purl.org/dc/elements/1.1/"
	 xmlns="http://www.w3.org/2000/svg" xmlns:xlink="http://www.w3.org/1999/xlink" x="0px" y="0px" width="141.732px"
	 height="141.732px" viewBox="0 0 141.732 141.732" enable-background="new 0 0 141.732 141.732" xml:space="preserve">
<sodipodi:namedview  inkscape:pageshadow="2" fit-margin-right="0" inkscape:pageopacity="0.0" inkscape:window-height="1018" fit-margin-bottom="0" inkscape:window-x="-8" inkscape:document-units="px" inkscape:window-y="-8" inkscape:window-maximized="1" inkscape:window-width="1920" inkscape:current-layer="layer1" fit-margin-left="0" fit-margin-top="0" showgrid="false" inkscape:cy="189.24062" inkscape:cx="484.0582" inkscape:zoom="0.7" borderopacity="1.0" bordercolor="#666666" pagecolor="#ffffff" id="base">
	</sodipodi:namedview>
<path fill="none" stroke="#000000" stroke-width="9" stroke-linecap="square" stroke-linejoin="bevel" stroke-miterlimit="10" d="
	M91.964,83.01c15.973-15.974,27.723-61.893,26.928-61.679c0.215-0.795-45.703,10.955-61.678,26.932
	C41.257,64.217,42.906,77.05,51.561,86.907c0,0,0.535,0.641,0.835,0.92c0.281,0.303,0.567,0.6,0.861,0.895
	C53.258,88.719,76.007,98.966,91.964,83.01z"/>
<line fill="none" stroke="#000000" stroke-width="9" stroke-linecap="square" stroke-linejoin="bevel" stroke-miterlimit="10" x1="52.964" y1="88.425" x2="52.964" y2="116.407"/>
<path fill="none" stroke="#000000" stroke-width="9" stroke-linecap="square" stroke-linejoin="bevel" stroke-miterlimit="10" d="
	M12.486,117.923c0,0,7.848-3.07,16.405-3.07c8.56,0,22.825,6.479,35.902,6.479c13.077,0,21.059-6.479,36.391-6.479
	s18.277,6.479,27.137,6.479"/>
</svg>
