<?xml version="1.0" encoding="utf-8"?>
<!-- Generator: Adobe Illustrator 16.0.4, SVG Export Plug-In . SVG Version: 6.00 Build 0)  -->
<!DOCTYPE svg PUBLIC "-//W3C//DTD SVG 1.1//EN" "http://www.w3.org/Graphics/SVG/1.1/DTD/svg11.dtd">
<svg version="1.1"
	 id="svg2" sodipodi:docname="Novo documento 1" inkscape:version="0.48.2 r9819" xmlns:inkscape="http://www.inkscape.org/namespaces/inkscape" xmlns:sodipodi="http://sodipodi.sourceforge.net/DTD/sodipodi-0.dtd" xmlns:svg="http://www.w3.org/2000/svg" xmlns:rdf="http://www.w3.org/1999/02/22-rdf-syntax-ns#" xmlns:cc="http://creativecommons.org/ns#" xmlns:dc="http://purl.org/dc/elements/1.1/"
	 xmlns="http://www.w3.org/2000/svg" xmlns:xlink="http://www.w3.org/1999/xlink" x="0px" y="0px" width="141.732px"
	 height="141.732px" viewBox="0 0 141.732 141.732" enable-background="new 0 0 141.732 141.732" xml:space="preserve">
<sodipodi:namedview  inkscape:pageshadow="2" fit-margin-right="0" inkscape:pageopacity="0.0" inkscape:window-height="1018" fit-margin-bottom="0" inkscape:window-x="-8" inkscape:document-units="px" inkscape:window-y="-8" inkscape:window-maximized="1" inkscape:window-width="1920" inkscape:current-layer="layer1" fit-margin-left="0" fit-margin-top="0" showgrid="false" inkscape:cy="189.24062" inkscape:cx="484.0582" inkscape:zoom="0.7" borderopacity="1.0" bordercolor="#666666" pagecolor="#ffffff" id="base">
	</sodipodi:namedview>
<g>
	<path fill="#FFFFFF" stroke="#000000" stroke-width="9" stroke-linejoin="round" stroke-miterlimit="10" d="M106.826,25.784
		c11.006,0,19.927,8.922,19.927,19.926c0,11.006-8.921,19.929-19.927,19.929c-11.004,0-19.926-8.923-19.926-19.929"/>
	
		<line fill="none" stroke="#000000" stroke-width="9" stroke-linejoin="round" stroke-miterlimit="10" x1="86.9" y1="45.71" x2="86.9" y2="15.354"/>
</g>
<g>
	<path fill="none" stroke="#000000" stroke-width="9" stroke-linejoin="round" stroke-miterlimit="10" d="M90.826,84.783
		c11.006,0,19.927,8.922,19.927,19.927c0,11.006-8.921,19.929-19.927,19.929c-11.004,0-19.926-8.923-19.926-19.929"/>
	
		<line fill="none" stroke="#000000" stroke-width="9" stroke-linejoin="round" stroke-miterlimit="10" x1="70.9" y1="104.71" x2="70.9" y2="15.354"/>
</g>
<g>
	<path fill="none" stroke="#000000" stroke-width="9" stroke-linejoin="round" stroke-miterlimit="10" d="M35.224,66.534
		c-11.008,0-19.928,8.921-19.928,19.926s8.92,19.928,19.928,19.928c11.004,0,19.926-8.923,19.926-19.928"/>
	
		<line fill="none" stroke="#000000" stroke-width="9" stroke-linejoin="round" stroke-miterlimit="10" x1="55.15" y1="86.46" x2="55.15" y2="15.354"/>
</g>
</svg>
