<?xml version="1.0" encoding="UTF-8" standalone="no"?>
<!-- Created with Inkscape (http://www.inkscape.org/) -->

<svg
   xmlns:dc="http://purl.org/dc/elements/1.1/"
   xmlns:cc="http://creativecommons.org/ns#"
   xmlns:rdf="http://www.w3.org/1999/02/22-rdf-syntax-ns#"
   xmlns:svg="http://www.w3.org/2000/svg"
   xmlns="http://www.w3.org/2000/svg"
   xmlns:sodipodi="http://sodipodi.sourceforge.net/DTD/sodipodi-0.dtd"
   xmlns:inkscape="http://www.inkscape.org/namespaces/inkscape"
   width="507.65506"
   height="381.42542"
   id="svg2"
   version="1.1"
   inkscape:version="0.48.2 r9819"
   sodipodi:docname="Novo documento 1">
  <defs
     id="defs4" />
  <sodipodi:namedview
     id="base"
     pagecolor="#ffffff"
     bordercolor="#666666"
     borderopacity="1.0"
     inkscape:pageopacity="0.0"
     inkscape:pageshadow="2"
     inkscape:zoom="0.7"
     inkscape:cx="484.0582"
     inkscape:cy="189.24062"
     inkscape:document-units="px"
     inkscape:current-layer="layer1"
     showgrid="false"
     fit-margin-top="0"
     fit-margin-left="0"
     fit-margin-right="0"
     fit-margin-bottom="0"
     inkscape:window-width="1920"
     inkscape:window-height="1018"
     inkscape:window-x="-8"
     inkscape:window-y="-8"
     inkscape:window-maximized="1" />
  <metadata
     id="metadata7">
    <rdf:RDF>
      <cc:Work
         rdf:about="">
        <dc:format>image/svg+xml</dc:format>
        <dc:type
           rdf:resource="http://purl.org/dc/dcmitype/StillImage" />
        <dc:title></dc:title>
      </cc:Work>
    </rdf:RDF>
  </metadata>
  <g
     inkscape:label="Camada 1"
     inkscape:groupmode="layer"
     id="layer1"
     transform="translate(-108.24108,-75.159339)">
    <path
       inkscape:connector-curvature="0"
       id="path3082"
       style="font-size:100px;font-style:normal;font-variant:normal;font-weight:normal;font-stretch:normal;line-height:125%;letter-spacing:0px;word-spacing:0px;fill:#000000;fill-opacity:1;stroke:none;font-family:StarFont Sans;-inkscape-font-specification:StarFont Sans"
       d="m 539.40689,104.11442 c -2e-5,1.75786 0.52895,3.46684 1.58691,5.12695 1.05793,1.6602 2.41698,3.01925 4.07715,4.07715 1.66014,1.05798 3.36912,1.58695 5.12696,1.58691 1.82288,4e-5 3.55628,-0.52893 5.20019,-1.58691 1.64385,-1.0579 2.98662,-2.42509 4.02832,-4.10156 1.04163,-1.67639 1.56246,-3.37723 1.5625,-5.10254 -4e-5,-1.79031 -0.52087,-3.51557 -1.5625,-5.175782 -1.0417,-1.660102 -2.39261,-3.011012 -4.05273,-4.052737 -1.66019,-1.041606 -3.38545,-1.562439 -5.17578,-1.5625 -1.72529,6.1e-5 -3.42613,0.520894 -5.10254,1.5625 -1.67646,1.041725 -3.04364,2.384497 -4.10157,4.028317 -1.05796,1.643942 -1.58693,3.377332 -1.58691,5.200202 z m 64.79492,28.80859 c -8e-5,-1.75779 -0.52091,-3.47491 -1.5625,-5.15136 -1.04174,-1.67641 -2.38452,-3.0436 -4.02832,-4.10157 -1.64395,-1.05791 -3.37735,-1.58688 -5.20019,-1.58691 -1.82299,3e-5 -3.55639,0.529 -5.2002,1.58691 -1.64394,1.05797 -2.98671,2.42516 -4.02832,4.10157 -1.04173,1.67645 -1.56256,3.39357 -1.5625,5.15136 -6e-5,1.72528 0.52077,3.42613 1.5625,5.10254 1.04161,1.67645 2.38438,3.04363 4.02832,4.10156 1.64381,1.05796 3.37721,1.58693 5.2002,1.58692 1.82284,1e-5 3.55624,-0.52896 5.20019,-1.58692 1.6438,-1.05793 2.98658,-2.42511 4.02832,-4.10156 1.04159,-1.67641 1.56242,-3.37726 1.5625,-5.10254 z M 566.89712,91.419104 c 3.28772,3.873757 4.9316,8.105524 4.93165,12.695316 -5e-5,2.60421 -0.59413,5.1921 -1.78223,7.76367 -1.1882,2.57165 -2.84021,4.9154 -4.95606,7.03125 -2.11592,2.11592 -4.46781,3.77607 -7.05566,4.98047 -2.58792,1.20446 -5.20023,1.80667 -7.83691,1.80664 -3.74352,3e-5 -7.26728,-1.0335 -10.57129,-3.10059 -3.30405,-2.06702 -5.96518,-4.77698 -7.9834,-8.12988 -2.01824,-3.35282 -3.02735,-6.80334 -3.02735,-10.35156 0,-6.868436 2.97851,-12.532493 8.93555,-16.992191 5.95701,-4.459564 17.38278,-6.738207 34.27735,-6.835938 6.99864,7.5e-5 13.14284,0.55346 18.43261,1.660157 5.28964,1.106842 9.95272,2.718168 13.98926,4.833984 4.03637,2.115951 7.6171,4.687563 10.74219,7.714844 l 0,10.791014 c -2.37639,-2.24604 -4.87476,-4.22358 -7.49512,-5.932612 -2.62052,-1.708931 -5.52579,-3.181912 -8.71582,-4.418949 -3.19018,-1.236918 -6.75463,-2.180928 -10.69336,-2.832031 -3.93886,-0.650979 -8.36594,-0.976499 -13.28125,-0.976563 -2.44145,6.4e-5 -5.07817,0.09772 -7.91016,0.292969 z m 48.09571,41.503906 c -9e-5,3.09247 -0.54534,5.9896 -1.63574,8.69141 -1.09059,2.70183 -3.14137,5.17579 -6.15235,7.42187 -3.01115,2.2461 -7.40567,4.07715 -13.18359,5.49317 -5.77806,1.41601 -13.17552,2.14029 -22.19238,2.17285 -5.24093,0 -10.06678,-0.33366 -14.47754,-1.00098 -4.41084,-0.66732 -8.30895,-1.59505 -11.69434,-2.7832 -3.38544,-1.18815 -6.4616,-2.63672 -9.22852,-4.3457 -2.76693,-1.70898 -5.3711,-3.73535 -7.8125,-6.07911 l 0,-10.79101 c 3.09244,2.92971 6.51855,5.44435 10.27833,7.54394 3.75974,2.09963 8.10544,3.73537 13.0371,4.90723 4.93161,1.17189 10.55498,1.75782 16.87012,1.75781 2.47391,1e-5 5.11063,-0.0976 7.91016,-0.29297 -1.49745,-1.8229 -2.6856,-3.84927 -3.56446,-6.0791 -0.87895,-2.2298 -1.3184,-4.4352 -1.31835,-6.61621 -5e-5,-2.63669 0.60216,-5.25713 1.80664,-7.86133 1.20437,-2.60413 2.84825,-4.94788 4.93164,-7.03125 2.08327,-2.08329 4.42702,-3.72717 7.03125,-4.93164 2.6041,-1.20438 5.20826,-1.80659 7.8125,-1.80664 2.76685,5e-5 5.48495,0.60226 8.15429,1.80664 2.66919,1.20447 5.0048,2.83207 7.00684,4.88282 2.00186,2.05081 3.5725,4.38642 4.71191,7.00683 1.13923,2.62047 1.7089,5.26533 1.70899,7.93457 z" />
    <path
       inkscape:connector-curvature="0"
       id="path3079"
       style="font-size:100px;font-style:normal;font-variant:normal;font-weight:normal;font-stretch:normal;line-height:125%;letter-spacing:0px;word-spacing:0px;fill:#000000;fill-opacity:1;stroke:none;font-family:StarFont Sans;-inkscape-font-specification:StarFont Sans"
       d="m 317.44928,102.30777 c 2.31114,1.53 4.45144,3.3285 6.4209,5.39551 1.96934,2.0671 3.63763,4.25623 5.00488,6.56738 1.36712,2.31124 2.44134,4.73637 3.22266,7.27539 0.78118,2.5391 1.1718,5.12698 1.17187,7.76368 -7e-5,3.90627 -0.90339,7.81251 -2.70996,11.71875 -1.8067,3.90626 -4.27252,7.42188 -7.39746,10.54687 -3.12506,3.125 -6.64068,5.59082 -10.54687,7.39746 -3.9063,1.80664 -7.82882,2.70996 -11.76758,2.70996 -3.87373,0 -7.74743,-0.89519 -11.62109,-2.68554 -3.87373,-1.79037 -7.39749,-4.25619 -10.57129,-7.39747 -3.17384,-3.14127 -5.66408,-6.65689 -7.47071,-10.54687 -1.80664,-3.88996 -2.70996,-7.80434 -2.70996,-11.74316 0,-3.41794 0.66731,-6.80336 2.00196,-10.15625 1.33462,-3.35283 3.20636,-6.48597 5.61523,-9.39942 2.40884,-2.91336 5.12693,-5.39546 8.1543,-7.44629 -2.34377,-1.62755 -4.45152,-3.426045 -6.32325,-5.3955 -1.87175,-1.969342 -3.52377,-4.142191 -4.95605,-6.518555 -1.4323,-2.376236 -2.53907,-4.874605 -3.32031,-7.495117 -0.78126,-2.620369 -1.17188,-5.151291 -1.17188,-7.592774 l 10.79102,0 c -2e-5,2.897212 0.9033,6.054761 2.70996,9.472657 1.80662,3.418035 4.37009,6.290753 7.69043,8.618164 3.32028,2.327532 7.04749,3.491268 11.18164,3.491211 3.19006,5.7e-5 6.11975,-0.683536 8.78906,-2.050782 2.66922,-1.367126 4.98856,-3.198179 6.95801,-5.493164 1.96934,-2.294854 3.44232,-4.654878 4.41894,-7.080078 0.97651,-2.425055 1.46479,-4.744389 1.46485,-6.958008 l 10.79101,0 c -7e-5,2.604244 -0.39069,5.175856 -1.17187,7.714844 -0.78132,2.539132 -1.85554,4.964259 -3.22266,7.275391 -1.36725,2.31126 -3.0274,4.492247 -4.98047,6.542969 -1.95318,2.050837 -4.10162,3.873742 -6.44531,5.468742 z m -38.18359,27.00196 c -2e-5,2.60418 0.59406,5.18393 1.78222,7.73925 1.18814,2.55536 2.85643,4.90724 5.00489,7.05567 2.14841,2.14844 4.50029,3.81674 7.05566,5.00488 2.55531,1.18816 5.13506,1.78223 7.73926,1.78223 2.63668,0 5.25712,-0.60221 7.86133,-1.80664 2.60411,-1.20442 4.94786,-2.8483 7.03125,-4.93164 2.08328,-2.08333 3.72715,-4.42707 4.93164,-7.03125 1.20437,-2.60415 1.80658,-5.20832 1.80664,-7.8125 -6e-5,-2.18097 -0.49648,-4.51658 -1.48926,-7.00684 -0.9929,-2.4902 -2.4496,-4.85836 -4.37012,-7.10449 -1.92062,-2.24605 -4.23182,-4.05269 -6.93359,-5.41992 -2.70187,-1.36715 -5.64783,-2.05074 -8.83789,-2.05079 -4.13415,5e-5 -7.86136,1.16379 -11.18164,3.49122 -3.32034,2.32751 -5.88381,5.20023 -7.69043,8.61816 -1.80666,3.418 -2.70998,6.57555 -2.70996,9.47266 z" />
    <path
       inkscape:connector-curvature="0"
       id="path3076"
       style="font-size:100px;font-style:normal;font-variant:normal;font-weight:normal;font-stretch:normal;line-height:125%;letter-spacing:0px;word-spacing:0px;fill:#000000;fill-opacity:1;stroke:none;font-family:StarFont Sans;-inkscape-font-specification:StarFont Sans"
       d="m 324.38287,306.49355 c -2.73444,4.68748 -5.90827,8.88669 -9.52148,12.59765 l -7.71485,-7.71484 c 4.42703,-3.05991 8.30072,-8.25196 11.6211,-15.57617 -3.41803,-7.9427 -6.03033,-16.91893 -7.83692,-26.92871 -1.80669,-10.00973 -3.06808,-20.87398 -3.78418,-32.59278 -5e-5,-4.36191 -0.56157,-7.25091 -1.68457,-8.66699 -1.12309,-1.41595 -2.56352,-2.12395 -4.32129,-2.12402 -2.76697,7e-5 -4.55733,0.93594 -5.37109,2.80762 -0.81384,1.8718 -1.22074,4.53293 -1.2207,7.98339 l 0,64.79493 -10.79102,0 0,-64.79493 c -3e-5,-4.39447 -0.56969,-7.2916 -1.70898,-8.6914 -1.13935,-1.39967 -2.57164,-2.09954 -4.29688,-2.09961 -4.39455,7e-5 -6.59181,3.59707 -6.59179,10.79101 l 0,64.79493 -10.79102,0 0,-64.79493 c -10e-6,-3.64577 0.71614,-7.12884 2.14844,-10.44922 1.43228,-3.32024 3.46678,-6.00578 6.10351,-8.05664 2.63671,-2.0507 5.68032,-3.07609 9.13086,-3.07617 4.75258,8e-5 8.59372,1.87182 11.52344,5.61524 3.25517,-3.74342 7.21024,-5.61516 11.86523,-5.61524 4.75256,8e-5 8.5937,1.87182 11.52344,5.61524 3.25515,-3.74342 7.2265,-5.61516 11.91406,-5.61524 3.45045,8e-5 6.45338,1.02547 9.00879,3.07617 2.55526,2.05086 4.49211,4.7364 5.81055,8.05664 1.31827,3.32038 1.97745,6.80345 1.97754,10.44922 -0.29306,5.30605 -0.74065,10.61203 -1.34277,15.91797 -0.6023,5.30603 -1.351,10.4167 -2.2461,15.33203 -0.89526,4.91539 -2.01831,9.74123 -3.36914,14.47754 -1.35099,4.73634 -2.97045,9.33431 -4.8584,13.79395 3.5481,7.35676 7.4869,12.54881 11.81641,15.57617 l -7.71484,7.71484 c -3.67847,-3.77606 -6.77091,-7.97527 -9.27735,-12.59765 z m -0.19531,-25.87891 c 1.1718,-4.36196 2.19719,-8.99249 3.07617,-13.8916 0.87883,-4.89906 1.58684,-9.88766 2.12402,-14.96582 0.53704,-5.07808 0.9358,-10.23758 1.19629,-15.47852 -7e-5,-3.3528 -0.39883,-5.98952 -1.19629,-7.91015 -0.7976,-1.92051 -2.40078,-2.88079 -4.80957,-2.88086 -2.76699,7e-5 -4.55735,0.93594 -5.37109,2.80762 -0.81387,1.8718 -1.22077,4.53293 -1.2207,7.98339 0.81374,16.43885 2.88079,31.21748 6.20117,44.33594 z" />
    <path
       inkscape:connector-curvature="0"
       id="path3073"
       style="font-size:100px;font-style:normal;font-variant:normal;font-weight:normal;font-stretch:normal;line-height:125%;letter-spacing:0px;word-spacing:0px;fill:#000000;fill-opacity:1;stroke:none;font-family:StarFont Sans;-inkscape-font-specification:StarFont Sans"
       d="m 131.14147,271.04432 c -1.82294,2e-5 -3.58889,0.53713 -5.29785,1.61133 -1.709,1.07424 -3.08433,2.4577 -4.12598,4.15039 -1.04168,1.69272 -1.56251,3.43426 -1.5625,5.22461 -1e-5,1.82292 0.52082,3.58074 1.5625,5.27344 1.04165,1.69271 2.41698,3.07617 4.12598,4.15039 1.70896,1.07422 3.47491,1.61133 5.29785,1.61132 1.82289,10e-6 3.58884,-0.5371 5.29785,-1.61132 1.70896,-1.07422 3.08428,-2.45768 4.12598,-4.15039 1.04163,-1.6927 1.56246,-3.45052 1.5625,-5.27344 -4e-5,-1.79035 -0.52087,-3.53189 -1.5625,-5.22461 -1.0417,-1.69269 -2.41702,-3.07615 -4.12598,-4.15039 -1.70901,-1.0742 -3.47496,-1.61131 -5.29785,-1.61133 z m 19.38477,10.98633 c -5e-5,2.57162 -0.5046,5.01303 -1.51367,7.32422 -1.00916,2.3112 -2.40076,4.35384 -4.17481,6.12793 -1.77413,1.77408 -3.84118,3.17382 -6.20117,4.19921 -2.36006,1.02539 -4.85843,1.53808 -7.49512,1.53809 -3.38544,0 -6.55926,-0.87077 -9.52148,-2.6123 -2.96226,-1.74154 -5.31414,-4.09343 -7.05567,-7.05567 -1.74154,-2.96223 -2.61231,-6.13606 -2.6123,-9.52148 -1e-5,-2.60415 0.5371,-5.08625 1.61133,-7.44629 1.07421,-2.36001 2.54719,-4.4352 4.41894,-6.22559 1.87173,-1.79033 3.98762,-3.19007 6.34766,-4.19922 2.36,-1.00908 4.85837,-1.51364 7.49512,-1.51367 1.69268,3e-5 3.304,0.19535 4.83398,0.58594 -1.26956,-2.63669 -2.27054,-4.72002 -3.00293,-6.25 -0.73245,-1.52991 -1.58694,-3.38538 -2.56348,-5.56641 -0.97658,-2.18094 -1.74156,-4.22358 -2.29492,-6.12793 -0.55341,-1.90424 -0.8301,-3.58881 -0.83008,-5.05371 -2e-5,-0.35802 0.0651,-1.02533 0.19532,-2.00195 2.7669,-15.59238 11.76754,-23.38859 27.00195,-23.38867 5.56635,8e-5 10.48985,0.29305 14.77051,0.8789 4.28053,0.58602 8.15422,1.79045 11.62109,3.61329 3.46672,1.82298 6.23364,4.60619 8.30078,8.3496 2.06697,3.74356 3.1005,8.65892 3.10059,14.7461 -0.1303,5.79432 -0.97665,10.84802 -2.53906,15.16113 -1.56259,4.31318 -3.48316,8.26826 -5.76172,11.86524 -2.27873,3.59702 -4.64689,7.40561 -7.1045,11.42578 -2.45775,4.02019 -4.12604,7.86947 -5.00488,11.54785 -1.00918,4.26432 -1.51374,7.5358 -1.51367,9.81445 -7e-5,3.28775 1.0416,5.35481 3.125,6.20117 1.62753,0.65103 3.12493,0.97655 4.49219,0.97657 1.20435,-2e-5 2.31926,-0.22788 3.34472,-0.6836 1.02532,-0.45574 2.0914,-1.14747 3.19825,-2.07519 1.10669,-0.92775 2.16463,-1.92059 3.17382,-2.97852 1.00904,-1.05795 2.09953,-2.20541 3.27149,-3.44238 l 6.49414,7.17773 c -3.93889,4.1341 -7.54403,7.0882 -10.81543,8.86231 -3.27156,1.77406 -6.42097,2.66111 -9.44824,2.66113 -2.53913,-2e-5 -5.11075,-0.53713 -7.71485,-1.61133 -6.08729,-2.31122 -9.13091,-7.50327 -9.13086,-15.57617 -5e-5,-3.45052 0.63471,-7.64974 1.9043,-12.59766 0.81375,-3.12499 1.96934,-6.1035 3.4668,-8.93554 1.49733,-2.83202 3.81667,-6.9173 6.95801,-12.25586 3.1412,-5.33851 5.4524,-9.66794 6.93359,-12.98828 1.48104,-3.32027 2.30298,-6.4941 2.46582,-9.52149 0.065,-0.68354 0.0976,-1.69266 0.0977,-3.02734 -8e-5,-5.01297 -1.00106,-8.74831 -3.00293,-11.20606 -2.00203,-2.45761 -4.85847,-4.07708 -8.56934,-4.85839 -3.711,-0.78119 -9.08209,-1.35085 -16.11328,-1.70899 -3.77609,7e-5 -6.84412,0.56973 -9.2041,1.70899 -2.36007,1.13938 -4.12601,2.75071 -5.29785,4.83398 -1.17191,2.08339 -1.93689,4.63873 -2.29493,7.66602 -3e-5,2.31125 0.47198,4.75265 1.41602,7.32421 0.94398,2.57166 2.42509,6.1117 4.44336,10.62012 2.01819,4.5085 3.58882,8.54495 4.71191,12.10938 1.12301,3.56447 1.68453,7.00685 1.68457,10.32714 -4e-5,1.26955 -0.0326,2.19728 -0.0977,2.78321 z" />
    <path
       inkscape:connector-curvature="0"
       id="path3070"
       style="font-size:100px;font-style:normal;font-variant:normal;font-weight:normal;font-stretch:normal;line-height:125%;letter-spacing:0px;word-spacing:0px;fill:#000000;fill-opacity:1;stroke:none;font-family:StarFont Sans;-inkscape-font-specification:StarFont Sans"
       d="m 445.04205,150.89177 0,-64.79493 -27.97852,0 0,64.79493 z m -38.76953,0 0,-64.79493 -14.20899,0 0,-10.791016 77.97852,0 0,10.791016 -14.16016,0 0,64.79493 14.16016,0 0,10.79101 -77.97852,0 0,-10.79101 z" />
    <path
       inkscape:connector-curvature="0"
       id="path3067"
       style="font-size:100px;font-style:normal;font-variant:normal;font-weight:normal;font-stretch:normal;line-height:125%;letter-spacing:0px;word-spacing:0px;fill:#000000;fill-opacity:1;stroke:none;font-family:StarFont Sans;-inkscape-font-specification:StarFont Sans"
       d="m 149.64733,97.131995 c -1.46489,-0.650984 -3.27152,-1.570579 -5.41992,-2.758789 -2.14848,-1.18809 -4.2725,-2.368102 -6.37207,-3.540039 -2.09964,-1.17181 -3.95511,-2.15651 -5.56641,-2.954102 -1.61135,-0.797458 -3.05178,-1.342705 -4.32129,-1.635742 -1.17189,-0.260348 -2.27866,-0.390556 -3.32031,-0.390625 -2.53908,6.9e-5 -3.80861,1.139391 -3.80859,3.417969 -2e-5,0.71621 0.0814,1.464908 0.24414,2.246094 0.16274,0.781312 0.40688,1.700907 0.73242,2.758789 0.3255,1.058002 0.6022,1.977597 0.83008,2.758789 0.65102,2.343805 1.30206,4.126031 1.95312,5.346681 0.65102,1.22075 1.52179,2.22173 2.61231,3.00293 1.09047,0.7813 2.77504,1.61137 5.05371,2.49023 l 0,10.79102 c -1.26956,-0.65101 -3.18199,-1.52991 -5.73731,-2.63672 -2.55535,-1.10673 -4.67937,-2.29488 -6.37207,-3.56445 -1.69272,-1.26949 -3.25522,-3.1331 -4.6875,-5.59082 -1.4323,-2.45764 -2.63672,-5.73726 -3.61328,-9.838871 -0.7487,-2.864523 -1.12305,-5.696552 -1.12305,-8.496094 0,-4.557221 1.18001,-7.926358 3.54004,-10.107422 2.36002,-2.180911 5.55826,-3.271405 9.59473,-3.271484 1.30206,7.9e-5 2.66925,0.09774 4.10156,0.292968 3.38539,0.553465 6.33949,1.285886 8.86231,2.197266 2.52275,0.911535 4.80139,1.985752 6.83593,3.222656 2.03447,1.237052 4.50029,2.897207 7.39747,4.980469 l 8.00781,0 c 2.89708,-2.083262 5.35476,-3.743417 7.37305,-4.980469 2.01816,-1.236904 4.30494,-2.311121 6.86035,-3.222656 2.55527,-0.91138 5.50936,-1.643801 8.8623,-2.197266 1.36711,-0.195233 2.7343,-0.292889 4.10156,-0.292968 2.57154,7.9e-5 4.85018,0.463946 6.83594,1.391601 1.98559,0.927812 3.52367,2.384516 4.61426,4.370117 1.0904,1.985749 1.63565,4.524809 1.63574,7.617188 -9e-5,2.799542 -0.37444,5.631571 -1.12305,8.496094 -0.97665,4.069061 -2.17294,7.348681 -3.58886,9.838871 -1.41611,2.49028 -2.96233,4.36202 -4.63867,5.61523 -1.67652,1.2533 -3.80054,2.43331 -6.37207,3.54004 -2.57169,1.10681 -4.49227,1.98571 -5.76172,2.63672 l 0,-10.79102 c 2.31112,-0.87886 4.00383,-1.71707 5.07812,-2.51465 1.07414,-0.79747 1.92863,-1.79845 2.56348,-3.00293 0.63468,-1.20437 1.27759,-2.978456 1.92871,-5.322261 1.20434,-3.906189 1.80656,-6.494077 1.80664,-7.763672 -8e-5,-2.278578 -1.26961,-3.4179 -3.80859,-3.417969 -1.04175,6.9e-5 -2.13224,0.130277 -3.27149,0.390625 -1.39981,0.325589 -3.08438,0.992906 -5.05371,2.001953 -1.96947,1.00918 -4.81777,2.555403 -8.54492,4.638672 -3.72727,2.083393 -6.43723,3.499407 -8.12988,4.248047 l 0,64.697265 -10.79102,0 z" />
    <path
       inkscape:connector-curvature="0"
       id="path3064"
       style="font-size:100px;font-style:normal;font-variant:normal;font-weight:normal;font-stretch:normal;line-height:125%;letter-spacing:0px;word-spacing:0px;fill:#000000;fill-opacity:1;stroke:none;font-family:StarFont Sans;-inkscape-font-specification:StarFont Sans"
       d="m 585.32974,236.2787 0,61.23047 c -6e-5,7.194 2.1972,10.791 6.5918,10.79102 2.40878,-2e-5 4.01197,-1.03354 4.80957,-3.10059 0.79745,-2.06706 1.19621,-4.80957 1.19629,-8.22754 l -7.22657,4.34571 0,-11.03516 12.59766,-7.66601 12.59766,9.08203 0,9.61914 -7.17774,-4.34571 c -9e-5,3.64583 -0.6674,7.18587 -2.00195,10.62012 -1.33472,3.43423 -3.27157,6.20929 -5.81055,8.3252 -2.53914,2.11586 -5.53393,3.1738 -8.98437,3.17382 -3.45059,-2e-5 -6.50235,-1.02541 -9.15528,-3.07617 -2.65305,-2.0508 -4.69569,-4.73634 -6.12793,-8.05664 -1.43234,-3.32032 -2.14849,-6.80339 -2.14843,-10.44922 l 0,-61.23047 c -6e-5,-4.36191 -0.56158,-7.25091 -1.68457,-8.66699 -1.1231,-1.41595 -2.56353,-2.12395 -4.32129,-2.12402 -2.70187,7e-5 -4.47596,0.94408 -5.32227,2.83203 -0.84639,1.88808 -1.26957,4.54108 -1.26953,7.95898 l 0,64.79493 -10.79102,0 0,-64.79493 c -3e-5,-4.39446 -0.56969,-7.2916 -1.70898,-8.6914 -1.13935,-1.39967 -2.57164,-2.09954 -4.29688,-2.09961 -4.39455,7e-5 -6.59181,3.59707 -6.59179,10.79101 l 0,64.79493 -10.79102,0 0,-64.79493 c 0,-3.64577 0.71614,-7.12884 2.14844,-10.44921 1.43228,-3.32025 3.46679,-6.00579 6.10352,-8.05664 2.6367,-2.05071 5.68031,-3.0761 9.13085,-3.07618 4.75258,8e-5 8.59372,1.87183 11.52344,5.61524 3.25517,-3.74341 7.21025,-5.61516 11.86524,-5.61524 3.48302,8e-5 6.48595,1.01733 9.00879,3.05176 2.52272,2.03458 4.45957,4.72012 5.81054,8.05664 1.35085,3.33666 2.02631,6.82786 2.02637,10.47363 z" />
    <path
       inkscape:connector-curvature="0"
       id="path3061"
       style="font-size:100px;font-style:normal;font-variant:normal;font-weight:normal;font-stretch:normal;line-height:125%;letter-spacing:0px;word-spacing:0px;fill:#000000;fill-opacity:1;stroke:none;font-family:StarFont Sans;-inkscape-font-specification:StarFont Sans"
       d="m 146.03405,414.27518 -8.98438,0 0,-10.20508 19.18946,0 28.71093,-28.75977 -11.91406,0 0,-9.61914 28.8086,0 0,30.17578 -10.79102,0 0,-11.76757 -20.01953,19.9707 9.17969,0 0,10.20508 -19.38477,0 -37.79297,37.79297 -14.79492,0 z" />
    <path
       inkscape:connector-curvature="0"
       id="path3058"
       style="font-size:100px;font-style:normal;font-variant:normal;font-weight:normal;font-stretch:normal;line-height:125%;letter-spacing:0px;word-spacing:0px;fill:#000000;fill-opacity:1;stroke:none;font-family:StarFont Sans;-inkscape-font-specification:StarFont Sans"
       d="m 387.86432,283.39783 86.37695,0 0,10.30274 -86.37695,0 z m 32.37304,-10.83984 -32.37304,0 0,-10.88866 21.58203,0 c -3e-5,-2.63669 0.60218,-5.24899 1.80664,-7.83692 1.20439,-2.58783 2.84827,-4.92344 4.93164,-7.00683 2.0833,-2.08328 4.42704,-3.72715 7.03125,-4.93164 2.60412,-1.20437 5.22456,-1.80658 7.86133,-1.80664 2.63666,6e-5 5.27338,0.61041 7.91015,1.83105 2.63666,1.22077 4.96413,2.84023 6.98242,4.8584 2.01817,2.01828 3.63763,4.34576 4.8584,6.98242 1.22064,2.63676 1.83099,5.27347 1.83106,7.91016 l 21.58203,0 0,10.88866 -32.37305,0 0,-10.88866 c -6e-5,-1.75777 -0.52903,-3.46675 -1.58691,-5.12696 -1.058,-1.6601 -2.41705,-3.01915 -4.07715,-4.07714 -1.66021,-1.05789 -3.36919,-1.58686 -5.12695,-1.58692 -1.79042,6e-5 -3.51567,0.52903 -5.17578,1.58692 -1.6602,1.05799 -3.01925,2.41704 -4.07715,4.07714 -1.05798,1.66021 -1.58696,3.36919 -1.58692,5.12696 z" />
    <path
       inkscape:connector-curvature="0"
       id="path3055"
       style="font-size:100px;font-style:normal;font-variant:normal;font-weight:normal;font-stretch:normal;line-height:125%;letter-spacing:0px;word-spacing:0px;fill:#000000;fill-opacity:1;stroke:none;font-family:StarFont Sans;-inkscape-font-specification:StarFont Sans"
       d="m 474.24127,436.24784 -14.4043,-14.4043 -14.35547,14.4043 -14.40429,-14.4043 -14.4043,14.4043 -14.4043,-14.4043 -14.40429,14.4043 0,-12.01172 14.40429,-14.4043 14.4043,14.4043 14.4043,-14.4043 14.40429,14.4043 14.35547,-14.4043 14.4043,14.4043 z m 0,-28.32031 -14.4043,-14.4043 -14.35547,14.4043 -14.40429,-14.4043 -14.4043,14.4043 -14.4043,-14.4043 -14.40429,14.4043 0,-12.01172 14.40429,-14.4043 14.4043,14.4043 14.4043,-14.4043 14.40429,14.4043 14.35547,-14.4043 14.4043,14.4043 z" />
    <path
       inkscape:connector-curvature="0"
       id="path3052"
       style="font-size:100px;font-style:normal;font-variant:normal;font-weight:normal;font-stretch:normal;line-height:125%;letter-spacing:0px;word-spacing:0px;fill:#000000;fill-opacity:1;stroke:none;font-family:StarFont Sans;-inkscape-font-specification:StarFont Sans"
       d="m 328.0694,388.86013 c 1.26945,-0.19525 2.44946,-0.69167 3.54004,-1.48926 1.0904,-0.79746 1.96931,-1.81471 2.63671,-3.05175 0.66723,-1.23692 1.00089,-2.49017 1.00098,-3.75977 -9e-5,-1.43222 -0.39885,-2.79127 -1.19629,-4.07715 -0.79761,-1.28573 -1.83928,-2.3274 -3.125,-3.125 -1.28589,-0.79745 -2.64494,-1.19621 -4.07715,-1.19629 -2.05086,8e-5 -3.96329,0.9034 -5.7373,2.70996 -1.77416,1.80672 -2.66121,3.76798 -2.66113,5.88379 -8e-5,1.92064 0.71607,3.67845 2.14843,5.27344 1.43222,1.59511 3.12493,2.53912 5.07813,2.83203 z m -8.10547,10.79102 -5.51758,0 -23.38867,54.49219 -10.79102,0 -27.00195,-75.58594 11.57226,0 20.80079,59.61914 20.80078,-49.31641 3.125,0 c -1.2696,-2.6041 -1.90436,-5.30592 -1.9043,-8.10547 -6e-5,-3.4179 0.9114,-6.64055 2.73438,-9.66796 1.82285,-3.02727 4.26425,-5.43612 7.32421,-7.22657 3.05983,-1.79028 6.34758,-2.68546 9.86329,-2.68554 3.32022,8e-5 6.42081,0.87899 9.30175,2.63671 2.88077,1.7579 5.16755,4.1342 6.86035,7.12891 1.69261,2.99487 2.53897,6.20124 2.53907,9.61914 -10e-5,2.70189 -0.54535,5.24909 -1.63575,7.6416 -1.09059,2.39264 -2.62053,4.49224 -4.58984,6.29883 -1.96949,1.80669 -4.14234,3.13319 -6.51855,3.97949 2.37621,1.95317 4.34561,4.02023 5.9082,6.20118 1.56241,2.18102 3.23884,4.9154 5.0293,8.20312 1.26943,2.37633 2.25413,4.8747 2.9541,7.49512 0.69977,2.62046 1.0497,5.24904 1.0498,7.88574 -1e-4,5.07814 -1.34287,9.78191 -4.02832,14.11133 -2.68564,4.32942 -6.79534,7.77994 -12.3291,10.35156 -5.53393,2.57161 -12.28848,3.85741 -20.26367,3.85742 l 0,-10.30273 c 5.43613,-0.0325 10.0341,-0.83822 13.79394,-2.41699 3.75969,-1.57878 6.5673,-3.73535 8.42286,-6.46973 1.85538,-2.73436 2.78311,-5.84308 2.7832,-9.32617 -9e-5,-4.78514 -1.62769,-9.84698 -4.88281,-15.18555 -1.66024,-2.66923 -3.3204,-4.89091 -4.98047,-6.66504 -1.66024,-1.77405 -4.00398,-3.96317 -7.03125,-6.56738 z" />
    <path
       inkscape:connector-curvature="0"
       id="path3049"
       style="font-size:100px;font-style:normal;font-variant:normal;font-weight:normal;font-stretch:normal;line-height:125%;letter-spacing:0px;word-spacing:0px;fill:#000000;fill-opacity:1;stroke:none;font-family:StarFont Sans;-inkscape-font-specification:StarFont Sans"
       d="m 579.69009,402.99587 c 0.13016,-4.36192 0.61844,-8.25189 1.46485,-11.66991 0.8463,-3.41791 2.05886,-6.57547 3.63769,-9.47265 1.57872,-2.89707 3.53998,-5.60703 5.88379,-8.12989 2.34368,-2.52271 5.24082,-5.20012 8.69141,-8.03222 l 12.74414,0 c -3.58081,2.99486 -6.59188,5.72924 -9.0332,8.20312 -2.44149,2.47403 -4.55737,5.13516 -6.34766,7.9834 -1.79043,2.84837 -3.20645,5.95709 -4.24805,9.32617 -1.04173,3.36919 -1.70905,7.29985 -2.00195,11.79199 l 18.01758,0 0,11.2793 -18.01758,0 c 0.2929,5.72919 1.30202,10.75035 3.02734,15.06348 1.72519,4.31316 4.09336,8.21127 7.1045,11.69433 3.01098,3.48308 6.84399,7.16146 11.49902,11.03516 l -12.74414,0 c -4.52481,-3.77605 -8.17878,-7.4056 -10.96192,-10.88867 -2.78326,-3.48307 -4.89914,-7.3649 -6.34765,-11.64551 -1.44863,-4.28058 -2.23801,-9.36684 -2.36817,-15.25879 l -15.82031,0 c -0.13025,5.89195 -0.91963,10.97821 -2.36816,15.25879 -1.44861,4.28061 -3.56449,8.16244 -6.34766,11.64551 -2.78323,3.48307 -6.4372,7.11262 -10.96191,10.88867 l -12.69532,0 c 4.8177,-4.00391 8.70767,-7.71484 11.66993,-11.13281 2.96222,-3.41796 5.29782,-7.26724 7.00683,-11.54785 1.70896,-4.28058 2.67738,-9.31801 2.90528,-15.11231 l -17.96875,0 0,-11.2793 17.96875,0 c -0.32555,-5.76167 -1.33467,-10.73399 -3.02735,-14.91699 -1.69273,-4.18288 -4.03648,-7.99961 -7.03125,-11.45019 -2.9948,-3.45045 -6.83595,-7.09628 -11.52344,-10.9375 l 12.69532,0 c 3.4505,2.8321 6.35577,5.51765 8.71582,8.05664 2.35999,2.53913 4.32125,5.24095 5.88379,8.10547 1.56246,2.86464 2.76689,6.01405 3.61328,9.44824 0.84631,3.43429 1.33459,7.3324 1.46484,11.69433 z" />
  </g>
</svg>
